<svg id="Layer_1" data-name="Layer 1" xmlns="http://www.w3.org/2000/svg" viewBox="0 0 940.78 767.92">
<defs>
<style>.cls-1{fill:#fe6d02;}.cls-2{fill:#02579a;}</style>
</defs>
<path class="cls-1" d="M455,327.2q65.28,0,130.56,0c18.71,0,37.43-.11,56.14-.14,5.44,0,10.88.13,16.32.11a21,21,0,0,0,4.24-.53,1.52,1.52,0,0,0,.73-2.36,16.31,16.31,0,0,0-2.45-2.25c-4.74-3.55-9.5-7-14.25-10.58L609.75,284.3Q582.6,264.15,555.44,244c-5.78-4.28-11.61-8.48-17.36-12.79-9.69-7.27-15.41-16.76-16.84-29a41.41,41.41,0,0,1,2.19-18.8,39.36,39.36,0,0,1,9.48-14.81,40.83,40.83,0,0,1,20.14-11.41,24.41,24.41,0,0,1,4.25-.58c2.4-.11,4.8,0,7.2-.1,8.73-.32,16.24,2.9,23.09,8,8.35,6.18,16.63,12.45,25,18.65,4.23,3.14,8.53,6.19,12.77,9.33q15.6,11.55,31.18,23.13c7.45,5.51,15,10.9,22.42,16.44,14.22,10.6,28.35,21.32,42.59,31.9,9,6.68,18.1,13.15,27.1,19.79,7.71,5.7,15.32,11.53,23,17.25Q791.28,315.6,811,330.11c10,7.4,20.11,14.74,30.11,22.18,14.11,10.49,28.07,21.19,42.28,31.54,8.79,6.4,17.27,13.17,25.64,20.09,3.68,3.05,7.2,6.32,10.67,9.62,3.94,3.74,7.72,7.66,11.61,11.46,5.74,5.59,10.69,11.89,15.77,18a274.82,274.82,0,0,1,21,29.2,282,282,0,0,1,23.62,46.56,292.74,292.74,0,0,1,11.49,36.58,259.4,259.4,0,0,1,5.74,31,222.29,222.29,0,0,1,1.85,24.31c0,3.5.61,7,.74,10.5a45.76,45.76,0,0,1-.46,5.7c-.11,1.27-.29,2.54-.31,3.81-.08,7.19-.09,14.38-.22,21.56,0,2.07-.35,4.13-.55,6.19,0,.47-.16.94-.2,1.42-.34,4.93-.63,9.86-1,14.78-.21,2.54-.59,5.07-1,7.58-1.55,9.44-3.06,18.89-5.53,28.15a298.18,298.18,0,0,1-12,36.91A248.86,248.86,0,0,1,972,782.65c-5.52,9-11.83,17.46-18,26-1.49,2.08-3.29,3.92-5,5.86C941,824,932.59,833.21,923,841.22c-4.17,3.46-8.12,7.21-12.43,10.5q-10.27,7.85-20.92,15.22c-11.72,8.13-24.27,14.82-37.06,21.08-10.49,5.14-21.33,9.44-32.26,13.55-8.68,3.27-17.52,6-26.42,8.53-5.83,1.68-11.73,3.11-17.65,4.43q-15.68,3.51-31.61,5.64c-8.86,1.16-17.72,2.31-26.64,3.12-17.09,1.56-34.18,1.12-51.27,1.11-5.37,0-10.85.08-16.22-1.11-2.3-.51-4.8-.06-7.17-.39-9-1.24-18.11-1.81-27.05-3.68-5.78-1.21-11.66-2-17.46-3.11-7-1.41-14.14-2.73-21.06-4.64-8.91-2.47-17.79-5.18-26.47-8.35-9.6-3.51-19.1-7.37-28.4-11.62-8.42-3.84-16.56-8.31-24.73-12.7-4.22-2.26-8.24-4.89-12.3-7.42-8.56-5.33-16.68-11.29-24.67-17.42a213,213,0,0,1-18.44-16.05c-2.76-2.66-5.85-5-8.54-7.69-8.42-8.54-16.23-17.63-23.8-26.92a274.71,274.71,0,0,1-24.17-35.14,286.23,286.23,0,0,1-25-54.35,240.14,240.14,0,0,1-8.38-30.92c-.47-2.5-.86-5-1.11-7.56-.49-4.92-1.15-9.86-1.2-14.79-.12-11,.09-22.08.19-33.12,0-1.11.24-2.22.29-3.33a9.23,9.23,0,0,0-.12-2.35,2.07,2.07,0,0,0-3.35-1.28c-1.78,1.36-3.46,2.83-5.15,4.3-6.87,6-13.71,12-20.6,17.93q-17.07,14.73-34.17,29.39-14,12-27.95,24.11-10.71,9.22-21.44,18.42c-5.23,4.45-10.52,8.83-15.74,13.28-5.72,4.87-11.38,9.8-17.09,14.67-6.32,5.39-12.68,10.71-19,16.1-9.71,8.32-19.36,16.7-29.08,25-18.77,16-45.55,15.77-62.92,3.65-11-7.65-18.55-17.83-21.86-31a88.6,88.6,0,0,1-1.81-11.8c-.33-2.94.35-6.05.87-9a57.34,57.34,0,0,1,8.62-21.16c3.91-6.06,9.27-10.48,14.65-15,6.12-5.14,12.16-10.37,18.25-15.55,4.14-3.51,8.32-7,12.46-10.49q11.14-9.45,22.27-18.94c6.09-5.18,12.15-10.39,18.23-15.57,8.16-6.94,16.34-13.84,24.48-20.8,6.32-5.4,12.55-10.9,18.88-16.29,6.94-5.89,14-11.68,20.92-17.56,5.12-4.34,10.17-8.77,15.27-13.14q9.28-7.93,18.59-15.85c7.89-6.74,15.75-13.52,23.67-20.24,8.4-7.14,16.88-14.19,25.26-21.35s16.41-14.25,24.65-21.34c5.82-5,11.71-9.92,17.55-14.88q7.68-6.51,15.33-13,10.94-9.3,21.9-18.6c2.92-2.48,5.9-4.9,8.84-7.36.49-.41.94-.87,1.41-1.3,1-.88,2-1.86,1.44-3.28-.64-1.64-2.13-1.51-3.65-1.47-2.84.07-5.7-.14-8.55-.15-8,0-16-.05-24,0-6.07.05-12.17.68-18.2.26-8.81-.6-17.59-.32-26.38-.32-6.23,0-12.49.76-18.68.35-8.48-.56-17-.37-25.42-.38-5.75,0-11.5.49-17.25.45a128,128,0,0,1-16.74-.81,51.45,51.45,0,0,1-24.93-10.34,52.66,52.66,0,0,1-13.86-15.68,44.88,44.88,0,0,1-6.27-19.44c-.09-1.27-.35-2.53-.47-3.8a23.41,23.41,0,0,1-.24-3.82c.69-10.74,3.68-20.71,10-29.59a48.59,48.59,0,0,1,10.76-10.85c6.44-4.83,13.54-8.6,21.61-9.85a87.78,87.78,0,0,1,13.36-1q82.8-.11,165.6,0H455ZM680,776.89c8.62-.19,17.22,0,25.84-1a229.74,229.74,0,0,0,29.67-5.28c12.12-3,23.76-7.54,35.32-12.25A167.9,167.9,0,0,0,793,746.88a184.68,184.68,0,0,0,31.59-23.29c3.64-3.36,7.31-6.69,10.8-10.2,2.81-2.83,5.37-5.91,8-8.9,1.16-1.32,2.33-2.64,3.36-4,3.57-4.91,7.15-9.81,10.6-14.8a146.4,146.4,0,0,0,11.17-19.55,150.61,150.61,0,0,0,10.83-29.68c2.42-9.95,4.62-19.9,4.94-30.17.33-10.7.59-21.37-.59-32.08A177.56,177.56,0,0,0,877,542.83c-3.21-10.77-8-20.84-13.4-30.71a177.82,177.82,0,0,0-28.84-38.72,207.17,207.17,0,0,0-62.62-43.55,197.74,197.74,0,0,0-32-11.4,249.38,249.38,0,0,0-27.66-5.69c-3.63-.54-7.35-.5-10.91-1.28-5.69-1.24-11.46-.62-17.17-1s-11.18.16-16.78.32a47.68,47.68,0,0,0-4.78.26c-3.47.46-6.91,1.28-10.39,1.52a139,139,0,0,0-20.3,3.29,189.5,189.5,0,0,0-26.33,7.29c-5.82,2.18-11.64,4.42-17.32,6.95a192.7,192.7,0,0,0-29,15.91,221.64,221.64,0,0,0-26.39,20.66,178.84,178.84,0,0,0-35.92,45.24,152.83,152.83,0,0,0-13.39,30.68c-1.76,6-3,12.1-4.57,18.13-2.82,10.92-3.16,22.13-3.7,33.28a103,103,0,0,0,1,16.72c.77,6.5,1.87,13,3.11,19.4a133.73,133.73,0,0,0,6.27,22.12,177.17,177.17,0,0,0,14.33,29.24,195.68,195.68,0,0,0,26.16,33.59,187.93,187.93,0,0,0,17.5,15.63,208.67,208.67,0,0,0,34.92,22.68c11.53,6,23.75,10.36,36,14.47,5.44,1.82,11.11,2.93,16.7,4.28a148.2,148.2,0,0,0,17.44,3c7.14.84,14.25,1.83,21.46,1.75C673.63,776.86,676.83,776.89,680,776.89Z" transform="translate(-70.67 -156.55)"/>
<path class="cls-2" d="M680.13,710.41c-4.47-.1-9-.1-13.42-.34-3-.17-6-.63-9-1.07a158.7,158.7,0,0,1-47-14.42c-19.7-9.7-36.43-23.15-49.11-41.18-9.21-13.09-15.62-27.52-18-43.49-3.58-24.11.73-46.68,13.18-67.76a120.31,120.31,0,0,1,29.57-33.67,142.81,142.81,0,0,1,34-19.54,134.94,134.94,0,0,1,26.58-8c5.94-1.12,11.9-2.14,18-2.77,5.59-.57,11.15-.69,16.74-.73a156.8,156.8,0,0,1,38.86,5,147.94,147.94,0,0,1,51.3,24.13c6.13,4.42,11.43,9.75,16.67,15.14a110.05,110.05,0,0,1,24.76,40.63,85.76,85.76,0,0,1,4.44,21.06c1.53,17.16-.35,33.87-7.34,49.79a113.9,113.9,0,0,1-21.52,32.7,135,135,0,0,1-50.19,33.6,166.82,166.82,0,0,1-23.79,7.34c-4.65,1-9.47,1.35-14.13,2.36-6.32,1.36-12.76.56-19.09,1.38-.48.06-1,.05-1.44.07Z" transform="translate(-70.67 -156.55)"/>
</svg>