<svg id="Layer_1" data-name="Layer 1" xmlns="http://www.w3.org/2000/svg" viewBox="0 0 384 384">
<defs><style>.cls-1{fill:#fff;}</style></defs>
<path d="M348,699V380a25.89,25.89,0,0,0,1.34-3.62c3.25-14.52,12.14-23.43,26.55-26.94,1.41-.35,2.74-1,4.11-1.44H700a12.51,12.51,0,0,0,2.63,1.23c16,3.3,25.5,12.92,28.18,29.14A10.83,10.83,0,0,0,732,381V699a31.91,31.91,0,0,0-1.31,4.17c-1.84,10.2-7.08,18.22-16.06,23.26-4.5,2.52-9.73,3.75-14.63,5.57H380a18.72,18.72,0,0,0-3.14-1.26c-15.24-3.14-24.67-12.73-27.59-28A26.38,26.38,0,0,0,348,699ZM559.28,511.18c0-4.39.06-7.84,0-11.29-.16-7.3-3.65-11.38-10.93-11.54-14.33-.31-28.67-.3-43-.05-6.91.12-10.67,4.39-10.67,11.2q0,89.75,0,179.49c0,7.57,3.76,11.28,11.4,11.3,13.33.05,26.66,0,40,0,9.9,0,13.2-3.27,13.21-13.15,0-30.33.07-60.66,0-91a62.12,62.12,0,0,1,6.17-27c6-12.72,18.09-19.27,32.31-17.76,13.94,1.47,22.9,9.13,25.89,23.68a130.13,130.13,0,0,1,2.23,24.72c.26,29.16.08,58.32.14,87.49,0,9.17,3.79,13,12.54,13q20.76,0,41.5,0c8.87,0,12.28-3.46,12.29-12.46,0-27.5.06-55,0-82.5,0-19.47,0-39-5-58-5.28-20-15.29-36.45-34.9-45.5-13.89-6.42-28.65-7-43.52-6.1-18.32,1.08-34.41,7.26-46.4,21.92C561.63,508.63,560.75,509.54,559.28,511.18ZM467.42,590q0-44.75,0-89.48c0-7.57-4-12.06-11.49-12.22q-20.73-.44-41.48,0c-7.31.14-11.67,4.95-11.68,12.23q-.06,88.72,0,177.45c0,8,4.44,12.29,12.42,12.31,13,.05,26,0,39,0,9.47,0,13.25-3.79,13.26-13.32Q467.45,633.5,467.42,590ZM435.09,472.48c22.59.09,41.58-18.23,41.8-40.34.23-23.14-18.56-42.4-41.43-42.45-22.58,0-41.46,18.41-41.89,40.32C393.1,454.38,413.56,473.43,435.09,472.48Z" transform="translate(-348 -348)"/>
<path class="cls-1" d="M559.28,511.18c1.47-1.64,2.35-2.55,3.15-3.52,12-14.66,28.08-20.84,46.4-21.92,14.87-.88,29.63-.32,43.52,6.1,19.61,9.05,29.62,25.47,34.9,45.5,5,19,5,38.53,5,58,.08,27.5,0,55,0,82.5,0,9-3.42,12.45-12.29,12.46q-20.74,0-41.5,0c-8.75,0-12.53-3.83-12.54-13-.06-29.17.12-58.33-.14-87.49a130.13,130.13,0,0,0-2.23-24.72c-3-14.55-12-22.21-25.89-23.68-14.22-1.51-26.32,5-32.31,17.76a62.12,62.12,0,0,0-6.17,27c.11,30.33,0,60.66,0,91,0,9.88-3.31,13.15-13.21,13.15-13.33,0-26.66,0-40,0-7.64,0-11.4-3.73-11.4-11.3q0-89.75,0-179.49c0-6.81,3.76-11.08,10.67-11.2,14.32-.25,28.66-.26,43,.05,7.28.16,10.77,4.24,10.93,11.54C559.34,503.34,559.28,506.79,559.28,511.18Z" transform="translate(-348 -348)"/>
<path class="cls-1" d="M467.42,590q0,43.49,0,87c0,9.53-3.79,13.31-13.26,13.32-13,0-26,0-39,0-8,0-12.41-4.29-12.42-12.31q-.08-88.72,0-177.45c0-7.28,4.37-12.09,11.68-12.23q20.73-.42,41.48,0c7.53.16,11.48,4.65,11.49,12.22Q467.48,545.28,467.42,590Z" transform="translate(-348 -348)"/>
<path class="cls-1" d="M435.09,472.48c-21.53.95-42-18.1-41.52-42.47.43-21.91,19.31-40.36,41.89-40.32,22.87.05,41.66,19.31,41.43,42.45C476.67,454.25,457.68,472.57,435.09,472.48Z" transform="translate(-348 -348)"/>
</svg>