<svg id="Layer_1" data-name="Layer 1" xmlns="http://www.w3.org/2000/svg" xmlns:xlink="http://www.w3.org/1999/xlink" viewBox="0 0 100 13.33"><defs><style>.cls-1{fill:#fcdf00;}.cls-2{fill:#663411;}.cls-3{fill:url(#linear-gradient);}.cls-4{fill:url(#linear-gradient-2);}.cls-5{fill:url(#linear-gradient-3);}.cls-6{fill:url(#linear-gradient-4);}.cls-7{fill:url(#linear-gradient-5);}.cls-8{fill:url(#radial-gradient);}.cls-9{fill:url(#radial-gradient-2);}.cls-10{fill:url(#radial-gradient-3);}.cls-11{fill:url(#linear-gradient-6);}.cls-12{fill:url(#linear-gradient-7);}.cls-13{fill:url(#linear-gradient-8);}.cls-14{fill:url(#radial-gradient-4);}.cls-15{fill:url(#linear-gradient-9);}.cls-16{fill:url(#linear-gradient-10);}.cls-17{fill:url(#linear-gradient-11);}.cls-18{fill:url(#linear-gradient-12);}.cls-19{fill:url(#linear-gradient-13);}.cls-20{fill:url(#linear-gradient-14);}.cls-21{fill:url(#linear-gradient-15);}.cls-22{fill:url(#linear-gradient-16);}.cls-23{fill:url(#linear-gradient-17);}.cls-24{fill:url(#radial-gradient-5);}.cls-25{fill:url(#radial-gradient-6);}.cls-26{fill:url(#linear-gradient-18);}.cls-27{fill:url(#linear-gradient-19);}.cls-28{fill:url(#linear-gradient-20);}.cls-29{fill:url(#linear-gradient-21);}.cls-30{fill:url(#linear-gradient-22);}.cls-31{fill:url(#linear-gradient-23);}.cls-32{fill:url(#radial-gradient-7);}.cls-33{fill:url(#radial-gradient-8);}.cls-34{fill:url(#linear-gradient-24);}.cls-35{fill:url(#linear-gradient-25);}.cls-36{fill:url(#radial-gradient-9);}.cls-37{fill:url(#radial-gradient-10);}.cls-38{fill:url(#radial-gradient-11);}.cls-39{fill:url(#radial-gradient-12);}.cls-40{fill:url(#radial-gradient-13);}.cls-41{fill:url(#radial-gradient-14);}.cls-42{fill:url(#linear-gradient-26);}.cls-43{fill:url(#linear-gradient-27);}.cls-44{fill:url(#linear-gradient-28);}.cls-45{fill:url(#linear-gradient-29);}.cls-46{fill:url(#linear-gradient-30);}.cls-47{fill:url(#linear-gradient-31);}.cls-48{fill:url(#linear-gradient-32);}.cls-49{fill:url(#radial-gradient-15);}.cls-50{fill:url(#radial-gradient-16);}.cls-51{fill:url(#radial-gradient-17);}.cls-52{fill:url(#radial-gradient-18);}.cls-53{fill:url(#linear-gradient-33);}.cls-54{fill:url(#linear-gradient-34);}.cls-55{fill:url(#linear-gradient-35);}.cls-56{fill:url(#linear-gradient-36);}.cls-57{fill:url(#linear-gradient-37);}.cls-58{fill:url(#linear-gradient-38);}.cls-59{fill:url(#linear-gradient-39);}.cls-60{fill:url(#radial-gradient-19);}.cls-61{fill:url(#radial-gradient-20);}.cls-62{fill:url(#radial-gradient-21);}.cls-63{fill:url(#radial-gradient-22);}.cls-64{fill:url(#linear-gradient-40);}.cls-65{fill:url(#linear-gradient-41);}.cls-66{fill:url(#linear-gradient-42);}.cls-67{fill:url(#linear-gradient-43);}.cls-68{fill:url(#linear-gradient-44);}.cls-69{fill:url(#linear-gradient-45);}.cls-70{fill:url(#radial-gradient-23);}.cls-71{fill:url(#radial-gradient-24);}.cls-72{fill:url(#radial-gradient-25);}.cls-73{fill:url(#linear-gradient-46);}.cls-74{fill:url(#radial-gradient-26);}.cls-75{fill:url(#radial-gradient-27);}.cls-76{fill:url(#radial-gradient-28);}.cls-77{fill:url(#linear-gradient-47);}.cls-78{fill:url(#linear-gradient-48);}.cls-79{fill:url(#linear-gradient-49);}.cls-80{fill:url(#linear-gradient-50);}.cls-81{fill:url(#linear-gradient-51);}.cls-82{fill:url(#linear-gradient-52);}.cls-83{fill:url(#linear-gradient-53);}.cls-84{fill:url(#linear-gradient-54);}.cls-85{fill:url(#linear-gradient-55);}.cls-86{fill:url(#radial-gradient-29);}.cls-87{fill:url(#linear-gradient-56);}.cls-88{fill:url(#linear-gradient-57);}.cls-89{fill:url(#radial-gradient-30);}.cls-90{fill:url(#linear-gradient-58);}.cls-91{fill:url(#radial-gradient-31);}.cls-92{fill:url(#radial-gradient-32);}.cls-93{fill:url(#radial-gradient-33);}.cls-94{fill:url(#radial-gradient-34);}.cls-95{fill:url(#radial-gradient-35);}.cls-96{fill:url(#radial-gradient-36);}.cls-97{fill:url(#linear-gradient-59);}.cls-98{fill:url(#linear-gradient-60);}.cls-99{fill:url(#linear-gradient-61);}.cls-100{fill:url(#linear-gradient-62);}.cls-101{fill:url(#linear-gradient-63);}.cls-102{fill:url(#linear-gradient-64);}.cls-103{fill:url(#linear-gradient-65);}.cls-104{fill:url(#linear-gradient-66);}.cls-105{fill:url(#linear-gradient-67);}.cls-106{fill:url(#linear-gradient-68);}.cls-107{fill:url(#radial-gradient-37);}.cls-108{fill:url(#radial-gradient-38);}.cls-109{fill:url(#radial-gradient-39);}.cls-110{fill:url(#radial-gradient-40);}.cls-111{fill:url(#radial-gradient-41);}.cls-112{fill:url(#radial-gradient-42);}.cls-113{fill:url(#radial-gradient-43);}.cls-114{fill:url(#radial-gradient-44);}.cls-115{fill:url(#radial-gradient-45);}.cls-116{fill:url(#radial-gradient-46);}.cls-117{fill:url(#radial-gradient-47);}.cls-118{fill:url(#radial-gradient-48);}.cls-119{fill:url(#radial-gradient-49);}.cls-120{fill:url(#radial-gradient-50);}.cls-121{fill:url(#radial-gradient-51);}.cls-122{fill:url(#linear-gradient-69);}.cls-123{fill:url(#linear-gradient-70);}.cls-124{fill:url(#linear-gradient-71);}.cls-125{fill:url(#linear-gradient-72);}.cls-126{fill:url(#linear-gradient-73);}.cls-127{fill:url(#linear-gradient-74);}.cls-128{fill:url(#linear-gradient-75);}.cls-129{fill:url(#linear-gradient-76);}.cls-130{fill:url(#linear-gradient-77);}.cls-131{fill:url(#linear-gradient-78);}.cls-132{fill:url(#linear-gradient-79);}.cls-133{fill:url(#linear-gradient-80);}.cls-134{fill:url(#radial-gradient-52);}.cls-135{fill:url(#radial-gradient-53);}.cls-136{fill:url(#linear-gradient-81);}.cls-137{fill:url(#radial-gradient-54);}.cls-138{fill:url(#linear-gradient-82);}.cls-139{fill:url(#linear-gradient-83);}.cls-140{fill:url(#linear-gradient-84);}.cls-141{fill:url(#radial-gradient-55);}.cls-142{fill:url(#linear-gradient-85);}.cls-143{fill:url(#linear-gradient-86);}.cls-144{fill:url(#radial-gradient-56);}.cls-145{fill:url(#radial-gradient-57);}.cls-146{fill:url(#radial-gradient-58);}.cls-147{fill:url(#radial-gradient-59);}.cls-148{fill:url(#radial-gradient-60);}.cls-149{fill:url(#radial-gradient-61);}.cls-150{fill:url(#radial-gradient-62);}</style><linearGradient id="linear-gradient" x1="5.71" y1="-1.94" x2="5.89" y2="-1.94" gradientTransform="matrix(32.79, 0, 0, -32.79, 262.98, 255.96)" gradientUnits="userSpaceOnUse"><stop offset="0" stop-color="#663411"/><stop offset="0.38" stop-color="#663411"/><stop offset="0.77" stop-color="#fcdf00"/><stop offset="1" stop-color="#fcdf00"/></linearGradient><linearGradient id="linear-gradient-2" x1="5.53" y1="-5.15" x2="5.71" y2="-5.15" gradientTransform="matrix(15.18, -19.18, -19.18, -15.18, 268.66, 348.74)" gradientUnits="userSpaceOnUse"><stop offset="0" stop-color="#663411"/><stop offset="0.29" stop-color="#663411"/><stop offset="0.9" stop-color="#fcdf00"/><stop offset="1" stop-color="#fcdf00"/></linearGradient><linearGradient id="linear-gradient-3" x1="4.84" y1="-1.4" x2="5.02" y2="-1.4" gradientTransform="matrix(38.42, 0, 0, -38.42, 264.37, 255.96)" gradientUnits="userSpaceOnUse"><stop offset="0" stop-color="#663411"/><stop offset="0.31" stop-color="#663411"/><stop offset="0.73" stop-color="#fcdf00"/><stop offset="1" stop-color="#fcdf00"/></linearGradient><linearGradient id="linear-gradient-4" x1="1.48" y1="-2.49" x2="1.66" y2="-2.49" gradientTransform="matrix(29.28, -67.33, -67.33, -29.28, 234, 347.43)" gradientUnits="userSpaceOnUse"><stop offset="0" stop-color="#663411"/><stop offset="0.36" stop-color="#663411"/><stop offset="0.79" stop-color="#fcdf00"/><stop offset="1" stop-color="#fcdf00"/></linearGradient><linearGradient id="linear-gradient-5" x1="1.63" y1="-1.57" x2="1.81" y2="-1.57" gradientTransform="matrix(61.04, -73.52, -73.52, -61.04, 229.39, 343.63)" gradientUnits="userSpaceOnUse"><stop offset="0" stop-color="#fcdf00"/><stop offset="0.18" stop-color="#fcdf00"/><stop offset="0.48" stop-color="#663411"/><stop offset="0.8" stop-color="#663411"/><stop offset="1" stop-color="#fcdf00"/></linearGradient><radialGradient id="radial-gradient" cx="0" cy="0" r="1" gradientTransform="translate(452.52 309.78) scale(1.28 1.28)" gradientUnits="userSpaceOnUse"><stop offset="0" stop-color="#fff" stop-opacity="0.85"/><stop offset="0.68" stop-color="#fff" stop-opacity="0.5"/><stop offset="1" stop-color="#fff" stop-opacity="0"/></radialGradient><radialGradient id="radial-gradient-2" cx="0" cy="0" r="1" gradientTransform="matrix(1.59, 0, 0, -1.59, 444.51, 319.76)" gradientUnits="userSpaceOnUse"><stop offset="0" stop-color="#fff" stop-opacity="0.85"/><stop offset="0.42" stop-color="#fff" stop-opacity="0.5"/><stop offset="1" stop-color="#fff" stop-opacity="0"/></radialGradient><radialGradient id="radial-gradient-3" cx="0" cy="0" r="1" gradientTransform="translate(445 319.89) scale(2.26 2.26)" gradientUnits="userSpaceOnUse"><stop offset="0" stop-color="#341000"/><stop offset="0.5" stop-color="#341000" stop-opacity="0.5"/><stop offset="1" stop-color="#341000" stop-opacity="0"/></radialGradient><linearGradient id="linear-gradient-6" x1="1.9" y1="-16.16" x2="2.08" y2="-16.16" gradientTransform="matrix(0, -15.08, -15.08, 0, 208.82, 349.72)" gradientUnits="userSpaceOnUse"><stop offset="0" stop-color="#341000"/><stop offset="0.2" stop-color="#341000"/><stop offset="0.39" stop-color="#341000" stop-opacity="0.5"/><stop offset="0.56" stop-color="#341000"/><stop offset="0.71" stop-color="#341000" stop-opacity="0.5"/><stop offset="0.8" stop-color="#341000" stop-opacity="0"/><stop offset="0.96" stop-color="#fcdf00"/><stop offset="1" stop-color="#fcdf00"/></linearGradient><linearGradient id="linear-gradient-7" x1="5.48" y1="-5.15" x2="5.66" y2="-5.15" gradientTransform="matrix(15.18, -19.18, -19.18, -15.18, 269.49, 347.7)" gradientUnits="userSpaceOnUse"><stop offset="0" stop-color="#663411"/><stop offset="0.19" stop-color="#663411"/><stop offset="0.57" stop-color="#fcdf00"/><stop offset="1" stop-color="#fcdf00"/></linearGradient><linearGradient id="linear-gradient-8" x1="2.01" y1="17.62" x2="2.19" y2="17.62" gradientTransform="matrix(0, 13.84, 13.84, 0, 208.82, 280.75)" gradientUnits="userSpaceOnUse"><stop offset="0" stop-color="#341000" stop-opacity="0.5"/><stop offset="0.16" stop-color="#341000"/><stop offset="0.47" stop-color="#341000"/><stop offset="0.62" stop-color="#341000" stop-opacity="0.5"/><stop offset="0.8" stop-color="#341000" stop-opacity="0"/><stop offset="1" stop-color="#fcdf00"/></linearGradient><radialGradient id="radial-gradient-4" cx="0" cy="0" r="1" gradientTransform="matrix(1.52, 0, 0, -1.52, 452.42, 308.96)" gradientUnits="userSpaceOnUse"><stop offset="0" stop-color="#341000"/><stop offset="0.54" stop-color="#341000" stop-opacity="0.5"/><stop offset="1" stop-color="#341000" stop-opacity="0"/></radialGradient><linearGradient id="linear-gradient-9" x1="0.91" y1="-4.42" x2="1.09" y2="-4.42" gradientTransform="matrix(7.1, -22.23, -22.23, -7.1, 363.67, 301.08)" gradientUnits="userSpaceOnUse"><stop offset="0" stop-color="#663411"/><stop offset="0.69" stop-color="#663411"/><stop offset="0.86" stop-color="#fcdf00"/><stop offset="1" stop-color="#fcdf00"/></linearGradient><linearGradient id="linear-gradient-10" x1="0.94" y1="2.19" x2="1.12" y2="2.19" gradientTransform="matrix(17.09, 68.21, 68.21, -17.09, 289.33, 282.43)" gradientUnits="userSpaceOnUse"><stop offset="0" stop-color="#fcdf00"/><stop offset="0.04" stop-color="#fcdf00"/><stop offset="0.94" stop-color="#fcdf00"/><stop offset="0.99" stop-color="#663411"/><stop offset="1" stop-color="#663411"/></linearGradient><linearGradient id="linear-gradient-11" x1="1.46" y1="-6.21" x2="1.65" y2="-6.21" gradientTransform="matrix(6.92, -21.67, -21.67, -6.92, 314.82, 301.01)" gradientUnits="userSpaceOnUse"><stop offset="0" stop-color="#663411"/><stop offset="0.7" stop-color="#663411"/><stop offset="0.86" stop-color="#fcdf00"/><stop offset="1" stop-color="#fcdf00"/></linearGradient><linearGradient id="linear-gradient-12" x1="0.81" y1="1.65" x2="0.99" y2="1.65" gradientTransform="matrix(16.95, 67.84, 67.84, -16.95, 338.13, 282.03)" gradientUnits="userSpaceOnUse"><stop offset="0" stop-color="#fcdf00"/><stop offset="0.04" stop-color="#fcdf00"/><stop offset="0.95" stop-color="#fcdf00"/><stop offset="1" stop-color="#663411"/></linearGradient><linearGradient id="linear-gradient-13" x1="-0.94" y1="0.64" x2="-0.76" y2="0.64" gradientTransform="matrix(-72.95, 27.88, 27.88, 72.95, 386.09, 289.39)" gradientUnits="userSpaceOnUse"><stop offset="0" stop-color="#fcdf00"/><stop offset="0.58" stop-color="#fcdf00"/><stop offset="0.71" stop-color="#fcdf00"/><stop offset="1" stop-color="#fcdf00"/></linearGradient><linearGradient id="linear-gradient-14" x1="0.38" y1="-2.83" x2="0.56" y2="-2.83" gradientTransform="matrix(0, -61.91, -61.91, 0, 282.61, 343.1)" gradientUnits="userSpaceOnUse"><stop offset="0" stop-color="#341000" stop-opacity="0"/><stop offset="0.05" stop-color="#341000" stop-opacity="0"/><stop offset="0.14" stop-color="#341000" stop-opacity="0.2"/><stop offset="0.34" stop-color="#341000" stop-opacity="0.5"/><stop offset="0.63" stop-color="#341000" stop-opacity="0.2"/><stop offset="0.86" stop-color="#341000" stop-opacity="0.5"/><stop offset="0.99" stop-color="#341000" stop-opacity="0"/><stop offset="1" stop-color="#341000" stop-opacity="0"/></linearGradient><linearGradient id="linear-gradient-15" x1="0.38" y1="-2.98" x2="0.56" y2="-2.98" xlink:href="#linear-gradient-14"/><linearGradient id="linear-gradient-16" x1="0.42" y1="2.81" x2="0.6" y2="2.81" gradientTransform="matrix(0, 62.1, 62.1, 0, 282.61, 283.09)" gradientUnits="userSpaceOnUse"><stop offset="0" stop-color="#fcdf00"/><stop offset="0.02" stop-color="#fcdf00"/><stop offset="0.09" stop-color="#fccf00" stop-opacity="0.8"/><stop offset="0.39" stop-color="#fcc100" stop-opacity="0.5"/><stop offset="0.5" stop-color="#fccf00" stop-opacity="0.2"/><stop offset="0.65" stop-color="#fcc100" stop-opacity="0.5"/><stop offset="0.92" stop-color="#fccf00" stop-opacity="0.5"/><stop offset="0.99" stop-color="#fcde00" stop-opacity="0.98"/><stop offset="0.99" stop-color="#fcdf00"/><stop offset="1" stop-color="#fcdf00"/></linearGradient><linearGradient id="linear-gradient-17" x1="0.42" y1="3.07" x2="0.6" y2="3.07" gradientTransform="matrix(0, 59.69, 59.69, 0, 282.61, 283.88)" gradientUnits="userSpaceOnUse"><stop offset="0" stop-color="#fcdf00"/><stop offset="0.02" stop-color="#fcdf00"/><stop offset="0.09" stop-color="#fccf00" stop-opacity="0.8"/><stop offset="0.32" stop-color="#fcc100" stop-opacity="0.5"/><stop offset="0.44" stop-color="#fccf00" stop-opacity="0.2"/><stop offset="0.61" stop-color="#fcc100" stop-opacity="0.5"/><stop offset="0.92" stop-color="#fccf00" stop-opacity="0.5"/><stop offset="0.99" stop-color="#fcde00" stop-opacity="0.98"/><stop offset="0.99" stop-color="#fcdf00"/><stop offset="1" stop-color="#fcdf00"/></linearGradient><radialGradient id="radial-gradient-5" cx="0" cy="0" r="1" gradientTransform="matrix(1.63, 0, 0, -1.18, 456.73, 321.57)" gradientUnits="userSpaceOnUse"><stop offset="0" stop-color="#fff" stop-opacity="0.85"/><stop offset="0.37" stop-color="#fff" stop-opacity="0.9"/><stop offset="1" stop-color="#fff" stop-opacity="0"/></radialGradient><radialGradient id="radial-gradient-6" cx="0" cy="0" r="1" gradientTransform="matrix(1.56, 0, 0, -1.13, 465.59, 321.59)" xlink:href="#radial-gradient-5"/><linearGradient id="linear-gradient-18" x1="3.29" y1="-1.24" x2="3.47" y2="-1.24" gradientTransform="matrix(46.56, 0, 0, -46.56, 304.58, 255.96)" gradientUnits="userSpaceOnUse"><stop offset="0" stop-color="#341000"/><stop offset="0.15" stop-color="#341000" stop-opacity="0.5"/><stop offset="0.4" stop-color="#341000" stop-opacity="0"/><stop offset="0.82" stop-color="#341000" stop-opacity="0"/><stop offset="0.99" stop-color="#341000"/><stop offset="1" stop-color="#341000"/></linearGradient><linearGradient id="linear-gradient-19" x1="3.37" y1="-1.28" x2="3.55" y2="-1.28" gradientTransform="matrix(45.35, 0, 0, -45.35, 305.17, 255.96)" gradientUnits="userSpaceOnUse"><stop offset="0" stop-color="#fff" stop-opacity="0.85"/><stop offset="0.14" stop-color="#fff" stop-opacity="0.5"/><stop offset="0.34" stop-color="#fff" stop-opacity="0"/><stop offset="0.75" stop-color="#fff" stop-opacity="0"/><stop offset="0.96" stop-color="#fff" stop-opacity="0.5"/><stop offset="1" stop-color="#fff" stop-opacity="0.85"/><stop offset="1" stop-color="#fff" stop-opacity="0.85"/></linearGradient><linearGradient id="linear-gradient-20" x1="-5.68" y1="-10.95" x2="-5.5" y2="-10.95" gradientTransform="matrix(-7.65, -9.37, -9.37, 7.65, 313.2, 352)" gradientUnits="userSpaceOnUse"><stop offset="0" stop-color="#fcdf00"/><stop offset="0.02" stop-color="#fcdf00"/><stop offset="0.18" stop-color="#341000" stop-opacity="0"/><stop offset="0.33" stop-color="#341000"/><stop offset="0.7" stop-color="#341000" stop-opacity="0.5"/><stop offset="0.98" stop-color="#341000" stop-opacity="0"/><stop offset="1" stop-color="#341000" stop-opacity="0"/></linearGradient><linearGradient id="linear-gradient-21" x1="5.16" y1="-6.76" x2="5.34" y2="-6.76" gradientTransform="matrix(12.97, -13.33, -13.33, -12.97, 299.86, 291.67)" gradientUnits="userSpaceOnUse"><stop offset="0" stop-color="#fcdf00" stop-opacity="0"/><stop offset="0.91" stop-color="#fcdf00" stop-opacity="0"/><stop offset="0.97" stop-color="#663411"/><stop offset="1" stop-color="#663411"/></linearGradient><linearGradient id="linear-gradient-22" x1="3.66" y1="-5.21" x2="3.84" y2="-5.21" gradientTransform="matrix(12.97, -13.33, -13.33, -12.97, 348.74, 291.67)" xlink:href="#linear-gradient-21"/><linearGradient id="linear-gradient-23" x1="-3.59" y1="-8.39" x2="-3.41" y2="-8.39" gradientTransform="matrix(-7.65, -9.37, -9.37, 7.65, 362.08, 352)" xlink:href="#linear-gradient-20"/><radialGradient id="radial-gradient-7" cx="0" cy="0" gradientTransform="matrix(1, 0.27, -0.17, 0.63, 456.49, 308.5)" xlink:href="#radial-gradient"/><radialGradient id="radial-gradient-8" cx="0" cy="0" gradientTransform="matrix(0.92, 0.25, -0.15, 0.56, 465.32, 308.49)" xlink:href="#radial-gradient"/><linearGradient id="linear-gradient-24" x1="7.19" y1="-2.31" x2="7.37" y2="-2.31" gradientTransform="matrix(22.83, 0, 0, -22.83, 291.17, 255.96)" gradientUnits="userSpaceOnUse"><stop offset="0" stop-color="#fcdf00"/><stop offset="0.01" stop-color="#fcdf00"/><stop offset="0.22" stop-color="#341000" stop-opacity="0.5"/><stop offset="0.42" stop-color="#341000"/><stop offset="0.56" stop-color="#341000"/><stop offset="0.66" stop-color="#341000" stop-opacity="0.5"/><stop offset="0.8" stop-color="#341000" stop-opacity="0"/><stop offset="1" stop-color="#341000" stop-opacity="0"/></linearGradient><linearGradient id="linear-gradient-25" x1="5.43" y1="-2.31" x2="5.61" y2="-2.31" gradientTransform="matrix(22.83, 0, 0, -22.83, 340.05, 255.96)" xlink:href="#linear-gradient-24"/><radialGradient id="radial-gradient-9" cx="0" cy="0" r="1" gradientTransform="translate(457.49 314.72) rotate(90) scale(18.25 0.22)" gradientUnits="userSpaceOnUse"><stop offset="0" stop-color="#fff" stop-opacity="0.7"/><stop offset="0.94" stop-color="#fff" stop-opacity="0"/><stop offset="1" stop-color="#fff" stop-opacity="0"/></radialGradient><radialGradient id="radial-gradient-10" cx="0" cy="0" r="1" gradientTransform="translate(466.32 314.72) rotate(90) scale(18.4 0.18)" xlink:href="#radial-gradient-9"/><radialGradient id="radial-gradient-11" cx="0" cy="0" r="1" gradientTransform="translate(466.32 314.69) rotate(90) scale(6.02 0.22)" gradientUnits="userSpaceOnUse"><stop offset="0" stop-color="#341000" stop-opacity="0.5"/><stop offset="1" stop-color="#341000" stop-opacity="0"/></radialGradient><radialGradient id="radial-gradient-12" cy="0" r="1" gradientTransform="translate(457.48 314.7) rotate(90) scale(5.91 0.24)" xlink:href="#radial-gradient-11"/><radialGradient id="radial-gradient-13" cy="0" r="1" gradientTransform="matrix(4.94, 0, 0, -0.07, 461.88, 313.99)" xlink:href="#radial-gradient-11"/><radialGradient id="radial-gradient-14" cx="0" cy="0" r="1" gradientTransform="matrix(9.25, 0, 0, -0.09, 461.88, 314)" xlink:href="#radial-gradient-9"/><linearGradient id="linear-gradient-26" x1="0.47" y1="-3.09" x2="0.65" y2="-3.09" gradientTransform="matrix(6.99, -21.91, -21.91, -6.99, 404.9, 300.92)" gradientUnits="userSpaceOnUse"><stop offset="0" stop-color="#663411"/><stop offset="0.69" stop-color="#663411"/><stop offset="0.86" stop-color="#fcdf00"/><stop offset="1" stop-color="#fcdf00"/></linearGradient><linearGradient id="linear-gradient-27" x1="0.66" y1="1.19" x2="0.84" y2="1.19" gradientTransform="matrix(15.64, 68.21, 68.21, -15.64, 380.03, 282.1)" gradientUnits="userSpaceOnUse"><stop offset="0" stop-color="#fcdf00"/><stop offset="0.04" stop-color="#fcdf00"/><stop offset="0.94" stop-color="#fcdf00"/><stop offset="1" stop-color="#663411"/></linearGradient><linearGradient id="linear-gradient-28" x1="0.43" y1="1.63" x2="0.61" y2="1.63" gradientTransform="matrix(0, 62.49, 62.49, 0, 372.67, 281.66)" gradientUnits="userSpaceOnUse"><stop offset="0" stop-color="#341000" stop-opacity="0"/><stop offset="0.02" stop-color="#341000" stop-opacity="0"/><stop offset="0.1" stop-color="#341000" stop-opacity="0.2"/><stop offset="0.34" stop-color="#341000" stop-opacity="0.5"/><stop offset="0.63" stop-color="#341000" stop-opacity="0.2"/><stop offset="0.86" stop-color="#341000" stop-opacity="0.5"/><stop offset="1" stop-color="#341000" stop-opacity="0"/><stop offset="1" stop-color="#341000" stop-opacity="0"/></linearGradient><linearGradient id="linear-gradient-29" x1="0.43" y1="1.65" x2="0.61" y2="1.65" gradientTransform="matrix(0, 61.08, 61.08, 0, 372.67, 282.69)" gradientUnits="userSpaceOnUse"><stop offset="0" stop-color="#fcdf00"/><stop offset="0.03" stop-color="#fcdf00"/><stop offset="0.09" stop-color="#fccf00" stop-opacity="0.8"/><stop offset="0.32" stop-color="#fcc100" stop-opacity="0.5"/><stop offset="0.44" stop-color="#fccf00" stop-opacity="0.2"/><stop offset="0.61" stop-color="#fcc100" stop-opacity="0.5"/><stop offset="0.92" stop-color="#fccf00" stop-opacity="0.5"/><stop offset="0.99" stop-color="#fcde00" stop-opacity="0.98"/><stop offset="0.99" stop-color="#fcdf00"/><stop offset="1" stop-color="#fcdf00"/></linearGradient><linearGradient id="linear-gradient-30" x1="2.19" y1="-10.75" x2="2.37" y2="-10.75" gradientTransform="matrix(3.57, -6.35, -6.35, -3.57, 398.6, 284.81)" gradientUnits="userSpaceOnUse"><stop offset="0" stop-color="#fcdf00" stop-opacity="0"/><stop offset="0.8" stop-color="#fcdf00" stop-opacity="0"/><stop offset="0.95" stop-color="#663411"/><stop offset="1" stop-color="#663411"/></linearGradient><linearGradient id="linear-gradient-31" x1="-0.89" y1="-8.62" x2="-0.71" y2="-8.62" gradientTransform="matrix(-4.4, -8.03, -8.03, 4.4, 402.27, 352.27)" gradientUnits="userSpaceOnUse"><stop offset="0" stop-color="#fcdf00"/><stop offset="0.07" stop-color="#fcdf00"/><stop offset="0.24" stop-color="#341000" stop-opacity="0"/><stop offset="0.4" stop-color="#341000"/><stop offset="0.73" stop-color="#341000" stop-opacity="0.5"/><stop offset="0.98" stop-color="#341000" stop-opacity="0"/><stop offset="1" stop-color="#341000" stop-opacity="0"/></linearGradient><linearGradient id="linear-gradient-32" x1="3.96" y1="-2.31" x2="4.14" y2="-2.31" gradientTransform="matrix(22.83, 0, 0, -22.83, 381.22, 255.96)" gradientUnits="userSpaceOnUse"><stop offset="0" stop-color="#fcdf00"/><stop offset="0.03" stop-color="#fcdf00"/><stop offset="0.23" stop-color="#341000" stop-opacity="0.5"/><stop offset="0.42" stop-color="#341000"/><stop offset="0.56" stop-color="#341000"/><stop offset="0.66" stop-color="#341000" stop-opacity="0.5"/><stop offset="0.8" stop-color="#341000" stop-opacity="0"/><stop offset="1" stop-color="#341000" stop-opacity="0"/></linearGradient><radialGradient id="radial-gradient-15" cx="0" cy="0" r="1" gradientTransform="matrix(1.32, 0, 0, -0.97, 473.21, 321.43)" xlink:href="#radial-gradient-5"/><radialGradient id="radial-gradient-16" cx="0" cy="0" gradientTransform="translate(472.77 308.54) scale(0.82 0.59)" xlink:href="#radial-gradient"/><radialGradient id="radial-gradient-17" cy="0" r="1" gradientTransform="translate(473.76 314.77) rotate(90) scale(9.34 0.16)" xlink:href="#radial-gradient-11"/><radialGradient id="radial-gradient-18" cx="0" cy="0" r="1" gradientTransform="translate(473.75 314.64) rotate(90) scale(13.54 0.17)" xlink:href="#radial-gradient-9"/><linearGradient id="linear-gradient-33" x1="0.02" y1="-1.68" x2="0.2" y2="-1.68" gradientTransform="matrix(6.99, -21.91, -21.91, -6.99, 446.26, 300.92)" xlink:href="#linear-gradient-26"/><linearGradient id="linear-gradient-34" x1="0.56" y1="0.71" x2="0.74" y2="0.71" gradientTransform="matrix(15.64, 68.21, 68.21, -15.64, 421.39, 282.1)" xlink:href="#linear-gradient-27"/><linearGradient id="linear-gradient-35" x1="0.43" y1="1.08" x2="0.61" y2="1.08" gradientTransform="matrix(0, 62.49, 62.49, 0, 414.03, 281.66)" xlink:href="#linear-gradient-28"/><linearGradient id="linear-gradient-36" x1="0.43" y1="1.09" x2="0.61" y2="1.09" gradientTransform="matrix(0, 61.08, 61.08, 0, 414.03, 282.69)" xlink:href="#linear-gradient-29"/><linearGradient id="linear-gradient-37" x1="-0.09" y1="-6.7" x2="0.09" y2="-6.7" gradientTransform="matrix(3.57, -6.35, -6.35, -3.57, 439.96, 284.81)" xlink:href="#linear-gradient-30"/><linearGradient id="linear-gradient-38" x1="0.89" y1="-5.37" x2="1.07" y2="-5.37" gradientTransform="matrix(-4.4, -8.03, -8.03, 4.4, 443.63, 352.27)" xlink:href="#linear-gradient-31"/><linearGradient id="linear-gradient-39" x1="2.47" y1="-2.31" x2="2.65" y2="-2.31" gradientTransform="matrix(22.83, 0, 0, -22.83, 422.58, 255.96)" xlink:href="#linear-gradient-32"/><radialGradient id="radial-gradient-19" cx="0" cy="0" r="1" gradientTransform="matrix(1.32, 0, 0, -0.97, 480.68, 321.43)" xlink:href="#radial-gradient-5"/><radialGradient id="radial-gradient-20" cx="0" cy="0" gradientTransform="translate(480.24 308.54) scale(0.82 0.59)" xlink:href="#radial-gradient"/><radialGradient id="radial-gradient-21" cy="0" r="1" gradientTransform="translate(481.24 314.77) rotate(90) scale(9.34 0.16)" xlink:href="#radial-gradient-11"/><radialGradient id="radial-gradient-22" cx="0" cy="0" r="1" gradientTransform="translate(481.22 314.64) rotate(90) scale(13.54 0.17)" xlink:href="#radial-gradient-9"/><linearGradient id="linear-gradient-40" x1="0.43" y1="-0.04" x2="0.61" y2="-0.04" gradientTransform="matrix(-19.35, 68.37, 68.37, 19.35, 505.41, 279.54)" gradientUnits="userSpaceOnUse"><stop offset="0" stop-color="#663411"/><stop offset="0.52" stop-color="#663411"/><stop offset="1" stop-color="#fcdf00"/></linearGradient><linearGradient id="linear-gradient-41" x1="0.45" y1="0.24" x2="0.63" y2="0.24" gradientTransform="matrix(18.68, 67.92, 67.92, -18.68, 461.32, 282.68)" gradientUnits="userSpaceOnUse"><stop offset="0" stop-color="#fcdf00"/><stop offset="0.04" stop-color="#fcdf00"/><stop offset="0.92" stop-color="#fcdf00"/><stop offset="1" stop-color="#663411"/></linearGradient><linearGradient id="linear-gradient-42" x1="0.4" y1="0.12" x2="0.58" y2="0.12" gradientTransform="matrix(22.32, -58.41, -58.41, -22.32, 488.9, 346.1)" gradientUnits="userSpaceOnUse"><stop offset="0" stop-color="#663411"/><stop offset="0.29" stop-color="#663411"/><stop offset="0.81" stop-color="#fcdf00"/><stop offset="1" stop-color="#fcdf00"/></linearGradient><linearGradient id="linear-gradient-43" x1="0.25" y1="-0.3" x2="0.43" y2="-0.3" gradientTransform="matrix(22.93, -18.88, -18.88, -22.93, 477.54, 312.01)" gradientUnits="userSpaceOnUse"><stop offset="0" stop-color="#663411"/><stop offset="0.66" stop-color="#663411"/><stop offset="0.69" stop-color="#fcdf00"/><stop offset="1" stop-color="#fcdf00"/></linearGradient><linearGradient id="linear-gradient-44" x1="0.42" y1="0.54" x2="0.6" y2="0.54" gradientTransform="matrix(0, 60.74, 60.74, 0, 455.38, 283.45)" xlink:href="#linear-gradient-16"/><linearGradient id="linear-gradient-45" x1="0.42" y1="0.09" x2="0.6" y2="0.09" gradientTransform="matrix(17.86, 68.38, 68.38, -17.86, 474.6, 282)" gradientUnits="userSpaceOnUse"><stop offset="0" stop-color="#341000"/><stop offset="0" stop-color="#341000"/><stop offset="0.05" stop-color="#341000" stop-opacity="0"/><stop offset="0.16" stop-color="#341000" stop-opacity="0.2"/><stop offset="0.34" stop-color="#341000" stop-opacity="0.5"/><stop offset="0.58" stop-color="#341000" stop-opacity="0.2"/><stop offset="0.77" stop-color="#341000" stop-opacity="0.5"/><stop offset="0.87" stop-color="#341000" stop-opacity="0"/><stop offset="0.95" stop-color="#341000"/><stop offset="0.99" stop-color="#341000" stop-opacity="0"/><stop offset="1" stop-color="#341000" stop-opacity="0"/></linearGradient><radialGradient id="radial-gradient-23" cx="0" cy="0" gradientTransform="matrix(0.82, 0.14, -0.12, 0.68, 487.69, 308.55)" xlink:href="#radial-gradient"/><radialGradient id="radial-gradient-24" cx="0" cy="0" r="1" gradientTransform="matrix(1.71, 0, 0, -1.71, 496.71, 310.38)" gradientUnits="userSpaceOnUse"><stop offset="0" stop-color="#fff" stop-opacity="0.85"/><stop offset="0.35" stop-color="#fff" stop-opacity="0.5"/><stop offset="1" stop-color="#fff" stop-opacity="0"/></radialGradient><radialGradient id="radial-gradient-25" cy="0" gradientTransform="translate(496.95 310.47) scale(1.76 1.76)" xlink:href="#radial-gradient-4"/><linearGradient id="linear-gradient-46" x1="1.13" y1="-2.67" x2="1.31" y2="-2.67" gradientTransform="matrix(19.77, 0, 0, -19.77, 464.19, 255.96)" gradientUnits="userSpaceOnUse"><stop offset="0" stop-color="#fcdf00"/><stop offset="0.01" stop-color="#fcdf00"/><stop offset="0.17" stop-color="#341000" stop-opacity="0.5"/><stop offset="0.42" stop-color="#341000"/><stop offset="0.58" stop-color="#341000"/><stop offset="0.73" stop-color="#341000" stop-opacity="0.5"/><stop offset="0.94" stop-color="#341000" stop-opacity="0"/><stop offset="1" stop-color="#341000" stop-opacity="0"/></linearGradient><radialGradient id="radial-gradient-26" cx="0" cy="0" r="1" gradientTransform="translate(488.23 321.43) scale(1.61 0.9)" xlink:href="#radial-gradient-5"/><radialGradient id="radial-gradient-27" cx="0" cy="0" r="1" gradientTransform="translate(488.71 314.66) rotate(90) scale(15.62 0.15)" xlink:href="#radial-gradient-9"/><radialGradient id="radial-gradient-28" cy="0" r="1" gradientTransform="matrix(0, 9.63, 0.18, 0, 488.71, 314.45)" xlink:href="#radial-gradient-11"/><linearGradient id="linear-gradient-47" x1="0.09" y1="0.92" x2="0.27" y2="0.92" gradientTransform="matrix(20.4, -63.91, -63.91, -20.4, 561.01, 344.56)" gradientUnits="userSpaceOnUse"><stop offset="0" stop-color="#663411"/><stop offset="0.4" stop-color="#663411"/><stop offset="0.89" stop-color="#663411"/><stop offset="0.96" stop-color="#fcdf00"/><stop offset="1" stop-color="#fcdf00"/></linearGradient><linearGradient id="linear-gradient-48" x1="0.42" y1="0.47" x2="0.6" y2="0.47" gradientTransform="matrix(0, -69.05, -69.05, 0, 542.42, 349.89)" gradientUnits="userSpaceOnUse"><stop offset="0" stop-color="#663411"/><stop offset="0.02" stop-color="#663411"/><stop offset="0.32" stop-color="#fcdf00"/><stop offset="0.98" stop-color="#fcdf00"/><stop offset="1" stop-color="#fcdf00"/></linearGradient><linearGradient id="linear-gradient-49" x1="0.42" y1="0.54" x2="0.6" y2="0.54" gradientTransform="matrix(0, -69.57, -69.57, 0, 542.42, 350.44)" gradientUnits="userSpaceOnUse"><stop offset="0" stop-color="#fcdf00"/><stop offset="0.1" stop-color="#fcdf00"/><stop offset="0.43" stop-color="#fcdf00"/><stop offset="0.96" stop-color="#fcdf00"/><stop offset="1" stop-color="#fcdf00"/></linearGradient><linearGradient id="linear-gradient-50" x1="0.06" y1="1.12" x2="0.25" y2="1.12" gradientTransform="matrix(23.75, -74.41, -74.41, -23.75, 591.06, 352.96)" gradientUnits="userSpaceOnUse"><stop offset="0" stop-color="#fcdf00"/><stop offset="0.02" stop-color="#fcdf00"/><stop offset="0.26" stop-color="#663411"/><stop offset="0.94" stop-color="#663411"/><stop offset="0.99" stop-color="#fcdf00"/><stop offset="1" stop-color="#fcdf00"/></linearGradient><linearGradient id="linear-gradient-51" x1="0.2" y1="1.03" x2="0.38" y2="1.03" gradientTransform="matrix(0, -38.26, -38.26, 0, 542.42, 323.95)" gradientUnits="userSpaceOnUse"><stop offset="0" stop-color="#fcdf00"/><stop offset="0.02" stop-color="#fcdf00"/><stop offset="0.15" stop-color="#fcd500" stop-opacity="0.52"/><stop offset="0.23" stop-color="#fccf00" stop-opacity="0.2"/><stop offset="0.47" stop-color="#fcc100" stop-opacity="0.5"/><stop offset="0.84" stop-color="#fccf00" stop-opacity="0.5"/><stop offset="0.99" stop-color="#fcde00" stop-opacity="0.98"/><stop offset="0.99" stop-color="#fcdf00"/><stop offset="1" stop-color="#fcdf00"/></linearGradient><linearGradient id="linear-gradient-52" x1="0.64" y1="-0.92" x2="0.82" y2="-0.92" gradientTransform="matrix(0, 41.7, 41.7, 0, 542.42, 281.99)" gradientUnits="userSpaceOnUse"><stop offset="0" stop-color="#341000" stop-opacity="0"/><stop offset="0.01" stop-color="#341000" stop-opacity="0"/><stop offset="0.07" stop-color="#341000" stop-opacity="0.2"/><stop offset="0.26" stop-color="#341000" stop-opacity="0.5"/><stop offset="0.55" stop-color="#341000" stop-opacity="0.2"/><stop offset="0.72" stop-color="#341000" stop-opacity="0.5"/><stop offset="0.99" stop-color="#341000" stop-opacity="0"/><stop offset="1" stop-color="#341000" stop-opacity="0"/></linearGradient><linearGradient id="linear-gradient-53" x1="0.08" y1="0.87" x2="0.27" y2="0.87" gradientTransform="matrix(0, -34.92, -34.92, 0, 542.42, 318.31)" xlink:href="#linear-gradient-51"/><linearGradient id="linear-gradient-54" x1="0.73" y1="-0.81" x2="0.92" y2="-0.81" gradientTransform="matrix(0, 36.58, 36.58, 0, 542.42, 281.9)" gradientUnits="userSpaceOnUse"><stop offset="0" stop-color="#341000" stop-opacity="0"/><stop offset="0.01" stop-color="#341000" stop-opacity="0"/><stop offset="0.09" stop-color="#341000" stop-opacity="0.2"/><stop offset="0.34" stop-color="#341000" stop-opacity="0.5"/><stop offset="0.63" stop-color="#341000" stop-opacity="0.2"/><stop offset="0.86" stop-color="#341000" stop-opacity="0.5"/><stop offset="0.99" stop-color="#341000" stop-opacity="0"/><stop offset="1" stop-color="#341000" stop-opacity="0"/></linearGradient><linearGradient id="linear-gradient-55" x1="-5.29" y1="2.33" x2="-5.11" y2="2.33" gradientTransform="matrix(7.24, -7.64, -7.64, -7.24, 559.9, 286)" gradientUnits="userSpaceOnUse"><stop offset="0" stop-color="#fcdf00" stop-opacity="0"/><stop offset="0.85" stop-color="#fcdf00" stop-opacity="0"/><stop offset="0.98" stop-color="#663411"/><stop offset="1" stop-color="#663411"/></linearGradient><radialGradient id="radial-gradient-29" cx="0" cy="0" r="1" gradientTransform="translate(502.57 308.55) scale(0.71 0.71)" gradientUnits="userSpaceOnUse"><stop offset="0" stop-color="#fff" stop-opacity="0.85"/><stop offset="0.51" stop-color="#fff" stop-opacity="0.5"/><stop offset="1" stop-color="#fff" stop-opacity="0"/></radialGradient><linearGradient id="linear-gradient-56" x1="-4.07" y1="-2.53" x2="-3.89" y2="-2.53" gradientTransform="matrix(20.86, 0, 0, -20.86, 595.16, 255.96)" gradientUnits="userSpaceOnUse"><stop offset="0" stop-color="#fcdf00"/><stop offset="0.03" stop-color="#fcdf00"/><stop offset="0.22" stop-color="#341000" stop-opacity="0.5"/><stop offset="0.42" stop-color="#341000"/><stop offset="0.56" stop-color="#341000"/><stop offset="0.66" stop-color="#341000" stop-opacity="0.5"/><stop offset="0.8" stop-color="#341000" stop-opacity="0"/><stop offset="1" stop-color="#341000" stop-opacity="0"/></linearGradient><linearGradient id="linear-gradient-57" x1="-1.92" y1="-2.28" x2="-1.73" y2="-2.28" gradientTransform="matrix(23.12, 0, 0, -23.12, 545.53, 255.96)" xlink:href="#linear-gradient-56"/><radialGradient id="radial-gradient-30" cx="0" cy="0" r="1" gradientTransform="translate(511.4 308.49) scale(0.54 0.54)" gradientUnits="userSpaceOnUse"><stop offset="0" stop-color="#fff" stop-opacity="0.85"/><stop offset="0.62" stop-color="#fff" stop-opacity="0.5"/><stop offset="1" stop-color="#fff" stop-opacity="0"/></radialGradient><linearGradient id="linear-gradient-58" x1="-7.03" y1="5.15" x2="-6.85" y2="5.15" gradientTransform="matrix(7.22, -8.53, -8.53, -7.22, 607.1, 286.94)" gradientUnits="userSpaceOnUse"><stop offset="0" stop-color="#fcdf00" stop-opacity="0"/><stop offset="0.81" stop-color="#fcdf00" stop-opacity="0"/><stop offset="0.98" stop-color="#663411"/><stop offset="1" stop-color="#663411"/></linearGradient><radialGradient id="radial-gradient-31" cy="0" gradientTransform="matrix(2.21, 0, 0, -2.22, 505.99, 320.83)" xlink:href="#radial-gradient-4"/><radialGradient id="radial-gradient-32" cx="0" cy="0" r="1" gradientTransform="matrix(1.57, 0, 0, -1.57, 506.03, 320.8)" gradientUnits="userSpaceOnUse"><stop offset="0" stop-color="#fff" stop-opacity="0.85"/><stop offset="0.41" stop-color="#fff" stop-opacity="0.5"/><stop offset="1" stop-color="#fff" stop-opacity="0"/></radialGradient><radialGradient id="radial-gradient-33" cx="0" cy="0" r="1" gradientTransform="translate(503.46 312.86) rotate(90) scale(5.7 0.18)" xlink:href="#radial-gradient-9"/><radialGradient id="radial-gradient-34" cy="0" r="1" gradientTransform="translate(503.44 312.31) rotate(90) scale(5.04 0.16)" xlink:href="#radial-gradient-11"/><radialGradient id="radial-gradient-35" cx="0" cy="0" r="1" gradientTransform="translate(512.25 312.1) rotate(90) scale(5.14 0.15)" xlink:href="#radial-gradient-9"/><radialGradient id="radial-gradient-36" cy="0" r="1" gradientTransform="translate(512.26 311.92) rotate(90) scale(5.01 0.11)" xlink:href="#radial-gradient-11"/><linearGradient id="linear-gradient-59" x1="0.15" y1="-1.53" x2="0.33" y2="-1.53" gradientTransform="matrix(12.09, 73.05, 73.05, -12.09, 625.82, 278.72)" gradientUnits="userSpaceOnUse"><stop offset="0" stop-color="#fcdf00"/><stop offset="0.93" stop-color="#fcdf00"/><stop offset="0.97" stop-color="#663411"/><stop offset="1" stop-color="#663411"/></linearGradient><linearGradient id="linear-gradient-60" x1="-0.51" y1="-2.64" x2="-0.33" y2="-2.64" gradientTransform="matrix(18.27, 57.79, 57.79, -18.27, 688.82, 291.87)" gradientUnits="userSpaceOnUse"><stop offset="0" stop-color="#fcdf00"/><stop offset="0.92" stop-color="#fcdf00"/><stop offset="0.98" stop-color="#663411"/><stop offset="1" stop-color="#663411"/></linearGradient><linearGradient id="linear-gradient-61" x1="-0.4" y1="-1.49" x2="-0.22" y2="-1.49" gradientTransform="matrix(35.38, 70.08, 70.08, -35.38, 636.34, 284.31)" gradientUnits="userSpaceOnUse"><stop offset="0" stop-color="#fff" stop-opacity="0.85"/><stop offset="0.05" stop-color="#fff" stop-opacity="0.85"/><stop offset="0.1" stop-color="#fff" stop-opacity="0.5"/><stop offset="0.2" stop-color="#fcc100" stop-opacity="0.3"/><stop offset="0.48" stop-color="#fccf00" stop-opacity="0.2"/><stop offset="0.8" stop-color="#fcc100" stop-opacity="0.5"/><stop offset="0.89" stop-color="#fff" stop-opacity="0.5"/><stop offset="0.95" stop-color="#fff" stop-opacity="0.85"/><stop offset="1" stop-color="#fff" stop-opacity="0.85"/></linearGradient><linearGradient id="linear-gradient-62" x1="-0.26" y1="-1.51" x2="-0.08" y2="-1.51" gradientTransform="matrix(35.42, 71.79, 71.79, -35.42, 635.12, 272.55)" gradientUnits="userSpaceOnUse"><stop offset="0" stop-color="#341000"/><stop offset="0.09" stop-color="#341000"/><stop offset="0.15" stop-color="#341000" stop-opacity="0.5"/><stop offset="0.32" stop-color="#341000" stop-opacity="0"/><stop offset="0.58" stop-color="#341000" stop-opacity="0.3"/><stop offset="0.91" stop-color="#341000" stop-opacity="0"/><stop offset="0.97" stop-color="#341000"/><stop offset="1" stop-color="#341000"/></linearGradient><linearGradient id="linear-gradient-63" x1="0.38" y1="-1.56" x2="0.57" y2="-1.56" gradientTransform="matrix(0, 57.73, 57.73, 0, 619.22, 287.62)" gradientUnits="userSpaceOnUse"><stop offset="0" stop-color="#fcdf00"/><stop offset="0.02" stop-color="#fcdf00"/><stop offset="0.1" stop-color="#fcd500" stop-opacity="0.52"/><stop offset="0.16" stop-color="#fccf00" stop-opacity="0.2"/><stop offset="0.31" stop-color="#fccf00" stop-opacity="0.8"/><stop offset="0.51" stop-color="#fcc100" stop-opacity="0.5"/><stop offset="0.74" stop-color="#fcc100" stop-opacity="0.5"/><stop offset="0.92" stop-color="#fccf00" stop-opacity="0.5"/><stop offset="0.99" stop-color="#fcde00" stop-opacity="0.98"/><stop offset="0.99" stop-color="#fcdf00"/><stop offset="1" stop-color="#fcdf00"/></linearGradient><linearGradient id="linear-gradient-64" x1="0.45" y1="-1.33" x2="0.64" y2="-1.33" gradientTransform="matrix(0, 67.25, 67.25, 0, 619.22, 277.4)" gradientUnits="userSpaceOnUse"><stop offset="0" stop-color="#fcdf00"/><stop offset="0.01" stop-color="#fcdf00"/><stop offset="0.08" stop-color="#341000" stop-opacity="0"/><stop offset="0.19" stop-color="#341000"/><stop offset="0.52" stop-color="#341000" stop-opacity="0.2"/><stop offset="0.73" stop-color="#341000" stop-opacity="0.5"/><stop offset="0.89" stop-color="#341000" stop-opacity="0.2"/><stop offset="1" stop-color="#341000" stop-opacity="0"/><stop offset="1" stop-color="#341000" stop-opacity="0"/></linearGradient><linearGradient id="linear-gradient-65" x1="0.36" y1="-1.84" x2="0.54" y2="-1.84" gradientTransform="matrix(0, 55.08, 55.08, 0, 619.22, 290.69)" gradientUnits="userSpaceOnUse"><stop offset="0" stop-color="#341000"/><stop offset="0.01" stop-color="#341000"/><stop offset="0.12" stop-color="#341000" stop-opacity="0.2"/><stop offset="0.34" stop-color="#341000" stop-opacity="0.5"/><stop offset="0.84" stop-color="#341000" stop-opacity="0.2"/><stop offset="1" stop-color="#341000" stop-opacity="0"/><stop offset="1" stop-color="#341000" stop-opacity="0"/></linearGradient><linearGradient id="linear-gradient-66" x1="0.35" y1="-1.83" x2="0.53" y2="-1.83" gradientTransform="matrix(0, 55.61, 55.61, 0, 619.22, 290.72)" xlink:href="#linear-gradient-63"/><linearGradient id="linear-gradient-67" x1="16.99" y1="10.96" x2="17.17" y2="10.96" gradientTransform="matrix(-6.79, -6.17, -6.17, 6.79, 714.8, 351.81)" gradientUnits="userSpaceOnUse"><stop offset="0" stop-color="#fcdf00"/><stop offset="0.01" stop-color="#fcdf00"/><stop offset="0.22" stop-color="#341000" stop-opacity="0"/><stop offset="0.5" stop-color="#341000"/><stop offset="0.78" stop-color="#341000" stop-opacity="0.5"/><stop offset="0.99" stop-color="#341000" stop-opacity="0"/><stop offset="1" stop-color="#341000" stop-opacity="0"/></linearGradient><linearGradient id="linear-gradient-68" x1="16.01" y1="11.43" x2="16.19" y2="11.43" gradientTransform="matrix(-4.2, -4.86, -4.86, 4.2, 641.45, 351.08)" gradientUnits="userSpaceOnUse"><stop offset="0" stop-color="#fcdf00"/><stop offset="0.01" stop-color="#fcdf00"/><stop offset="0.22" stop-color="#341000" stop-opacity="0"/><stop offset="0.48" stop-color="#341000"/><stop offset="0.81" stop-color="#341000" stop-opacity="0.5"/><stop offset="0.98" stop-color="#341000" stop-opacity="0"/><stop offset="1" stop-color="#341000" stop-opacity="0"/></linearGradient><radialGradient id="radial-gradient-37" cx="0" cy="0" gradientTransform="matrix(0.51, -0.16, 0.32, 1.03, 518.69, 309.97)" xlink:href="#radial-gradient"/><radialGradient id="radial-gradient-38" cx="0" cy="0" r="1" gradientTransform="matrix(1.14, 0, 0, -0.73, 516.84, 321.34)" gradientUnits="userSpaceOnUse"><stop offset="0" stop-color="#fff" stop-opacity="0.85"/><stop offset="0.37" stop-color="#fff" stop-opacity="0.85"/><stop offset="1" stop-color="#fff" stop-opacity="0"/></radialGradient><radialGradient id="radial-gradient-39" cx="0" cy="0" r="1" gradientTransform="matrix(1.23, 0, 0, -0.74, 529.55, 321.29)" xlink:href="#radial-gradient-38"/><radialGradient id="radial-gradient-40" cx="0" cy="0" r="1" gradientTransform="matrix(1.18, -1.26, 0.77, 0.72, 528.11, 309.71)" gradientUnits="userSpaceOnUse"><stop offset="0" stop-color="#fff" stop-opacity="0.85"/><stop offset="0.58" stop-color="#fff" stop-opacity="0.5"/><stop offset="1" stop-color="#fff" stop-opacity="0"/></radialGradient><radialGradient id="radial-gradient-41" cx="0" cy="0" r="1" gradientTransform="matrix(1.02, 0, 0, -1.02, 523.29, 319.49)" xlink:href="#radial-gradient-40"/><radialGradient id="radial-gradient-42" cx="0" cy="0" gradientTransform="matrix(0.65, 0, 0, -1.02, 528.89, 309.99)" xlink:href="#radial-gradient"/><radialGradient id="radial-gradient-43" cy="0" gradientTransform="matrix(1.04, 0.12, 0.17, -1.46, 528.67, 310.61)" xlink:href="#radial-gradient-4"/><radialGradient id="radial-gradient-44" cy="0" r="1" gradientTransform="matrix(1.17, 11.61, 0.08, -0.01, 529.07, 314.19)" xlink:href="#radial-gradient-11"/><radialGradient id="radial-gradient-45" cy="0" r="1" gradientTransform="matrix(-0.99, 10.27, 0.05, 0.01, 517.73, 315.38)" xlink:href="#radial-gradient-11"/><radialGradient id="radial-gradient-46" cx="0" cy="0" r="1" gradientTransform="matrix(-1.57, 15.8, -0.21, -0.02, 517.81, 314.7)" gradientUnits="userSpaceOnUse"><stop offset="0" stop-color="#fff" stop-opacity="0.7"/><stop offset="0.7" stop-color="#fff" stop-opacity="0"/><stop offset="1" stop-color="#fff" stop-opacity="0"/></radialGradient><radialGradient id="radial-gradient-47" cx="0" cy="0" r="1" gradientTransform="matrix(6.53, 13.42, 0.18, -0.09, 520.91, 314.85)" xlink:href="#radial-gradient-9"/><radialGradient id="radial-gradient-48" cy="0" r="1" gradientTransform="matrix(5.06, 10.44, 0.13, -0.06, 520.48, 313.97)" xlink:href="#radial-gradient-11"/><radialGradient id="radial-gradient-49" cy="0" r="1" gradientTransform="matrix(4.85, -10.28, -0.04, -0.02, 525.69, 315.5)" xlink:href="#radial-gradient-11"/><radialGradient id="radial-gradient-50" cx="0" cy="0" r="1" gradientTransform="matrix(-5.76, 12.2, 0.11, 0.05, 526.27, 314.29)" xlink:href="#radial-gradient-9"/><radialGradient id="radial-gradient-51" cx="0" cy="0" r="1" gradientTransform="matrix(1.59, 15.5, -0.2, 0.02, 529.2, 315.37)" xlink:href="#radial-gradient-9"/><linearGradient id="linear-gradient-69" x1="-7.3" y1="-2.06" x2="-7.12" y2="-2.06" gradientTransform="matrix(28.2, 0, 0, -28.2, 742.83, 255.96)" gradientUnits="userSpaceOnUse"><stop offset="0" stop-color="#663411"/><stop offset="0.71" stop-color="#663411"/><stop offset="1" stop-color="#fcdf00"/></linearGradient><linearGradient id="linear-gradient-70" x1="-9.85" y1="-2.83" x2="-9.67" y2="-2.83" gradientTransform="matrix(20.89, 0, 0, -20.89, 742.77, 255.96)" gradientUnits="userSpaceOnUse"><stop offset="0" stop-color="#fcdf00"/><stop offset="0.8" stop-color="#fcdf00"/><stop offset="0.92" stop-color="#fcdf00"/><stop offset="1" stop-color="#fcdf00"/></linearGradient><linearGradient id="linear-gradient-71" x1="-0.27" y1="-2.82" x2="-0.09" y2="-2.82" gradientTransform="matrix(15.38, 66.46, 66.46, -15.38, 725.57, 283.69)" gradientUnits="userSpaceOnUse"><stop offset="0" stop-color="#fcdf00"/><stop offset="0.02" stop-color="#fcdf00"/><stop offset="0.94" stop-color="#fcdf00"/><stop offset="1" stop-color="#663411"/></linearGradient><linearGradient id="linear-gradient-72" x1="7.9" y1="2.27" x2="8.08" y2="2.27" gradientTransform="matrix(-28.52, 0, 0, 28.52, 766.51, 255.96)" gradientUnits="userSpaceOnUse"><stop offset="0" stop-color="#663411"/><stop offset="0.01" stop-color="#663411"/><stop offset="0.13" stop-color="#fcdf00"/><stop offset="1" stop-color="#fcdf00"/></linearGradient><linearGradient id="linear-gradient-73" x1="-4.33" y1="-1.18" x2="-4.15" y2="-1.18" gradientTransform="matrix(44.54, 0, 0, -44.54, 726.77, 255.96)" gradientUnits="userSpaceOnUse"><stop offset="0" stop-color="#663411"/><stop offset="0.85" stop-color="#663411"/><stop offset="1" stop-color="#fcdf00"/></linearGradient><linearGradient id="linear-gradient-74" x1="-8.54" y1="6.74" x2="-8.35" y2="6.74" gradientTransform="matrix(17.36, -10.6, -10.6, -17.36, 759.56, 347.2)" gradientUnits="userSpaceOnUse"><stop offset="0" stop-color="#663411"/><stop offset="0.19" stop-color="#663411"/><stop offset="0.57" stop-color="#fcdf00"/><stop offset="1" stop-color="#fcdf00"/></linearGradient><linearGradient id="linear-gradient-75" x1="-8.65" y1="-2.26" x2="-8.46" y2="-2.26" gradientTransform="matrix(23.62, 0, 0, -23.62, 740.75, 255.96)" gradientUnits="userSpaceOnUse"><stop offset="0" stop-color="#fcdf00"/><stop offset="0.82" stop-color="#fcdf00"/><stop offset="0.92" stop-color="#fcdf00"/><stop offset="1" stop-color="#fcdf00"/></linearGradient><linearGradient id="linear-gradient-76" x1="-21.18" y1="14.67" x2="-21" y2="14.67" gradientTransform="matrix(6.89, -4.89, -4.89, -6.89, 757.02, 311.6)" gradientUnits="userSpaceOnUse"><stop offset="0" stop-color="#663411"/><stop offset="0.54" stop-color="#663411"/><stop offset="0.58" stop-color="#fcdf00"/><stop offset="1" stop-color="#fcdf00"/></linearGradient><linearGradient id="linear-gradient-77" x1="0.43" y1="-3.31" x2="0.61" y2="-3.31" gradientTransform="matrix(0, 55.17, 55.17, 0, 717.92, 285.88)" xlink:href="#linear-gradient-16"/><linearGradient id="linear-gradient-78" x1="-0.25" y1="-3.01" x2="-0.07" y2="-3.01" gradientTransform="matrix(14.18, 65.75, 65.75, -14.18, 737.37, 282.53)" gradientUnits="userSpaceOnUse"><stop offset="0" stop-color="#341000"/><stop offset="0" stop-color="#341000"/><stop offset="0.07" stop-color="#341000" stop-opacity="0"/><stop offset="0.16" stop-color="#341000" stop-opacity="0.2"/><stop offset="0.34" stop-color="#341000" stop-opacity="0.5"/><stop offset="0.58" stop-color="#341000" stop-opacity="0.2"/><stop offset="0.77" stop-color="#341000" stop-opacity="0.5"/><stop offset="0.89" stop-color="#341000" stop-opacity="0"/><stop offset="0.98" stop-color="#341000"/><stop offset="1" stop-color="#341000"/></linearGradient><linearGradient id="linear-gradient-79" x1="-4.33" y1="-1.18" x2="-4.15" y2="-1.18" gradientTransform="matrix(44.54, 0, 0, -44.54, 726.77, 255.96)" gradientUnits="userSpaceOnUse"><stop offset="0" stop-color="#fcdf00"/><stop offset="0.01" stop-color="#fcdf00"/><stop offset="0.13" stop-color="#341000" stop-opacity="0.5"/><stop offset="0.25" stop-color="#341000"/><stop offset="0.33" stop-color="#341000" stop-opacity="0.5"/><stop offset="0.55" stop-color="#341000" stop-opacity="0"/><stop offset="0.73" stop-color="#341000" stop-opacity="0"/><stop offset="0.89" stop-color="#341000"/><stop offset="1" stop-color="#341000"/></linearGradient><linearGradient id="linear-gradient-80" x1="0.42" y1="-15.04" x2="0.61" y2="-15.04" gradientTransform="matrix(0, 11.8, 11.8, 0, 717.92, 308.6)" gradientUnits="userSpaceOnUse"><stop offset="0" stop-color="#fcdf00"/><stop offset="0.01" stop-color="#fcdf00"/><stop offset="0.11" stop-color="#341000" stop-opacity="0.5"/><stop offset="0.42" stop-color="#341000"/><stop offset="0.56" stop-color="#341000"/><stop offset="0.66" stop-color="#341000" stop-opacity="0.5"/><stop offset="0.8" stop-color="#341000" stop-opacity="0"/><stop offset="1" stop-color="#fcdf00"/></linearGradient><radialGradient id="radial-gradient-52" cx="0" cy="0" r="1" gradientTransform="translate(536.69 314.48) scale(1.54 1.54)" gradientUnits="userSpaceOnUse"><stop offset="0" stop-color="#fff" stop-opacity="0.85"/><stop offset="0.94" stop-color="#fff" stop-opacity="0"/><stop offset="1" stop-color="#fff" stop-opacity="0"/></radialGradient><radialGradient id="radial-gradient-53" cx="0" cy="0" gradientTransform="translate(540.36 314.96) scale(0.91 0.91)" xlink:href="#radial-gradient-52"/><linearGradient id="linear-gradient-81" x1="-8.65" y1="-2.24" x2="-8.46" y2="-2.24" xlink:href="#linear-gradient-75"/><radialGradient id="radial-gradient-54" cx="0" cy="0" gradientTransform="matrix(0.93, 0.3, 0.24, -0.76, 540.68, 309.34)" xlink:href="#radial-gradient-52"/><linearGradient id="linear-gradient-82" x1="-9.06" y1="1.35" x2="-8.88" y2="1.35" gradientTransform="matrix(22.23, -3.49, -3.49, -22.23, 743.2, 312.9)" gradientUnits="userSpaceOnUse"><stop offset="0" stop-color="#341000"/><stop offset="0.16" stop-color="#341000" stop-opacity="0"/><stop offset="0.92" stop-color="#341000" stop-opacity="0.5"/><stop offset="0.95" stop-color="#fcdf00"/><stop offset="1" stop-color="#fcdf00"/></linearGradient><linearGradient id="linear-gradient-83" x1="2.64" y1="-15.72" x2="2.82" y2="-15.72" gradientTransform="matrix(0, 11.27, 11.27, 0, 717.92, 278.37)" xlink:href="#linear-gradient-80"/><linearGradient id="linear-gradient-84" x1="-15.51" y1="8.77" x2="-15.33" y2="8.77" gradientTransform="matrix(9.9, -7.2, -7.2, -9.9, 756.17, 284.35)" gradientUnits="userSpaceOnUse"><stop offset="0" stop-color="#341000" stop-opacity="0"/><stop offset="0.8" stop-color="#341000" stop-opacity="0"/><stop offset="0.91" stop-color="#fcdf00"/><stop offset="1" stop-color="#fcdf00"/></linearGradient><radialGradient id="radial-gradient-55" cx="0" cy="0" gradientTransform="matrix(0.95, 0.09, -0.07, 0.77, 535.19, 308.54)" xlink:href="#radial-gradient"/><linearGradient id="linear-gradient-85" x1="2.49" y1="15.29" x2="2.68" y2="15.29" gradientTransform="matrix(0, -11.56, -11.56, 0, 717.92, 349.93)" xlink:href="#linear-gradient-6"/><linearGradient id="linear-gradient-86" x1="-8.54" y1="6.74" x2="-8.35" y2="6.74" gradientTransform="matrix(17.36, -10.6, -10.6, -17.36, 759.56, 347.2)" gradientUnits="userSpaceOnUse"><stop offset="0" stop-color="#341000"/><stop offset="0.19" stop-color="#341000"/><stop offset="0.57" stop-color="#fcdf00"/><stop offset="1" stop-color="#fcdf00"/></linearGradient><radialGradient id="radial-gradient-56" cx="0" cy="0" r="1" gradientTransform="translate(535.63 321.48) scale(1.74 0.96)" xlink:href="#radial-gradient-5"/><radialGradient id="radial-gradient-57" cy="0" r="1" gradientTransform="matrix(0, 6.53, 0.28, 0, 536.18, 314.71)" xlink:href="#radial-gradient-11"/><radialGradient id="radial-gradient-58" cx="0" cy="0" r="1" gradientTransform="translate(536.15 314.65) rotate(90) scale(20.04 0.14)" xlink:href="#radial-gradient-9"/><radialGradient id="radial-gradient-59" cy="0" r="1" gradientTransform="translate(538.72 314.28) scale(2.17 0.11)" xlink:href="#radial-gradient-11"/><radialGradient id="radial-gradient-60" cx="0" cy="0" r="1" gradientTransform="translate(538.62 314.32) scale(2.38 0.07)" xlink:href="#radial-gradient-9"/><radialGradient id="radial-gradient-61" cy="0" r="1" gradientTransform="matrix(3.76, 0.09, 0, 0.09, 538.95, 308.63)" xlink:href="#radial-gradient-11"/><radialGradient id="radial-gradient-62" cx="0" cy="0" r="1" gradientTransform="matrix(2.71, 0.06, 0, -0.06, 538.01, 308.65)" xlink:href="#radial-gradient-9"/></defs><title>logo</title><path class="cls-1" d="M449.16,321.37a10.19,10.19,0,0,1-3.25-.46,6.61,6.61,0,0,1-2.35-1.37,6.47,6.47,0,0,1-2.05-5,6.91,6.91,0,0,1,.38-2.18,6.42,6.42,0,0,1,1.52-2.46,6.93,6.93,0,0,1,5.17-1.81,14.94,14.94,0,0,1,2.46.2c.35.07,1.57.27,1.87.27a.11.11,0,0,1,.12.13v0a8.54,8.54,0,0,0-.15,2.12c0,.34-.07.35-.07.35s-.05-.11-.06-.3h0a4.11,4.11,0,0,0-.17-.84,2,2,0,0,0-1.42-1,9.5,9.5,0,0,0-2.69-.33,7.25,7.25,0,0,0-2.58.4,4,4,0,0,0-1.33.84,4.48,4.48,0,0,0-1.23,2,8,8,0,0,0-.3,2.42,6.42,6.42,0,0,0,1.7,4.34,6,6,0,0,0,4.44,1.9c1.31,0,2.64-.08,3.37-1a2.17,2.17,0,0,0,.31-.81c0-.06,0-.11.05-.16v0c.05-.15.07-.22.09-.22h0a.44.44,0,0,1,0,.24v.05a12.06,12.06,0,0,1-.35,1.87c-.08.28-.11.31-.33.41a9.64,9.64,0,0,1-3.14.42" transform="translate(-441.5 -308.05)"/><path class="cls-2" d="M450.91,320.9v-.42h0v.42h0" transform="translate(-441.5 -308.05)"/><path class="cls-3" d="M452.52,320.81a.63.63,0,0,0,.12-.26,17.09,17.09,0,0,0,.36-1.92c0-.14,0-.26,0-.26h0a3.51,3.51,0,0,1-.83,2.15l.38.29" transform="translate(-441.5 -308.05)"/><path class="cls-4" d="M452.14,320.52a3.51,3.51,0,0,0,.83-2.15s-.06.09-.11.26a2.74,2.74,0,0,1-.34,1,2.57,2.57,0,0,1-1.63.89v.43a3.5,3.5,0,0,0,1.25-.39" transform="translate(-441.5 -308.05)"/><path class="cls-5" d="M453,308.57a7.8,7.8,0,0,1-.63.49h0a4,4,0,0,1,.42,2.12s.07-.1.07-.36a9,9,0,0,1,.15-2.16.1.1,0,0,0,0-.09" transform="translate(-441.5 -308.05)"/><path class="cls-6" d="M449.16,320.6a6.14,6.14,0,0,1-6.13-6.23,5.68,5.68,0,0,1,1.53-4.43c.59-.58,1.64-1.24,3.9-1.24,2,0,3.77.51,4.1,1.39a3.16,3.16,0,0,1,.17.78c0,.24,0,.31.07.31h0a4,4,0,0,0-.42-2.12,8.62,8.62,0,0,0-3.88-.71c-4.36,0-6.2,2.66-6.2,6.09,0,4.2,3.21,6.59,6.82,6.59a10.13,10.13,0,0,0,1.76-.12v-.43a9.86,9.86,0,0,1-1.73.12" transform="translate(-441.5 -308.05)"/><path class="cls-7" d="M450.89,320.91a10.13,10.13,0,0,1-1.76.12c-3.61,0-6.82-2.39-6.82-6.59,0-3.43,1.84-6.09,6.2-6.09a12.93,12.93,0,0,1,1.62.09,6.8,6.8,0,0,1,2.26.62h0a7.8,7.8,0,0,0,.63-.49s0,0-.11,0c-.3,0-1.51-.21-1.86-.28s-.61-.09-.92-.12a14.9,14.9,0,0,0-1.55-.08,6.87,6.87,0,0,0-5.18,1.82,6.79,6.79,0,0,0-1.9,4.64,6.53,6.53,0,0,0,2.05,5,7.84,7.84,0,0,0,5.61,1.84,14.34,14.34,0,0,0,1.73-.1,6,6,0,0,0,1.41-.33.49.49,0,0,0,.22-.14l-.38-.29a3.5,3.5,0,0,1-1.25.39" transform="translate(-441.5 -308.05)"/><path class="cls-8" d="M452.39,309.06a6.66,6.66,0,0,0-2.06-.59v.39c1.15.21,2,.64,2.23,1.23a3.16,3.16,0,0,1,.17.78c0,.24,0,.31.07.31h0a4,4,0,0,0-.42-2.12" transform="translate(-441.5 -308.05)"/><path class="cls-9" d="M442.39,315.56h-.83a6.16,6.16,0,0,0,2,4,7.74,7.74,0,0,0,5.47,1.84V321a6.46,6.46,0,0,1-6.63-5.47" transform="translate(-441.5 -308.05)"/><path class="cls-10" d="M449.16,320.6a6.14,6.14,0,0,1-6.13-6h-.72c.07,4.12,3.25,6.46,6.82,6.46h.35v-.43h-.32" transform="translate(-441.5 -308.05)"/><path class="cls-11" d="M452.52,320.81a.63.63,0,0,0,.12-.26,17.09,17.09,0,0,0,.36-1.92c0-.14,0-.26,0-.26h0a3.51,3.51,0,0,1-.83,2.15l.38.29" transform="translate(-441.5 -308.05)"/><path class="cls-12" d="M452.14,320.52a3.51,3.51,0,0,0,.83-2.15s-.06.09-.11.26a2.74,2.74,0,0,1-.34,1,2.57,2.57,0,0,1-1.63.89v.43a3.5,3.5,0,0,0,1.25-.39" transform="translate(-441.5 -308.05)"/><path class="cls-13" d="M453,308.57a7.8,7.8,0,0,1-.63.49h0a4,4,0,0,1,.42,2.12s.07-.1.07-.36a9,9,0,0,1,.15-2.16.1.1,0,0,0,0-.09" transform="translate(-441.5 -308.05)"/><path class="cls-14" d="M450.13,308.44a6.8,6.8,0,0,1,2.26.62h0a7.8,7.8,0,0,0,.63-.49s0,0-.11,0c-.3,0-1.51-.21-1.86-.28s-.61-.09-.92-.12h0v.32h0" transform="translate(-441.5 -308.05)"/><path class="cls-1" d="M468.29,321.13c-.63,0-1.39,0-1.76,0H466c-.38,0-1,0-1.38,0s-.26-.05-.26-.06,0,0,.13,0a2.91,2.91,0,0,0,.51,0c.36-.07.43-.64.49-1.1.09-.71.08-2,.08-3.69v-1.85s0,0,0,0h-7.34s-.05,0-.05,0v1.85c0,1.66,0,3,.09,3.69.05.49.15,1,.67,1.1a6.54,6.54,0,0,0,.73,0c.11,0,.15,0,.15,0s0,.06-.37.06c-.63,0-1.39,0-1.75,0h-.5c-.38,0-1,0-1.38,0s-.26-.05-.26-.06,0,0,.12,0a3.08,3.08,0,0,0,.52,0c.35-.07.43-.64.49-1.1.09-.71.08-2,.08-3.69v-3c0-2.65,0-3.13,0-3.67s-.14-1-.75-1.12a4.64,4.64,0,0,0-.48,0c-.17,0-.21,0-.21,0s.07-.06.26-.06c.58,0,1.33,0,1.7,0h.51c.38,0,1,0,1.38,0,.19,0,.26,0,.26.06s-.06,0-.18,0a2.38,2.38,0,0,0-.44,0c-.45.1-.54.59-.57,1.12s0,1,0,3.67v.42s0,.05.05.05h7.34s0,0,0-.05v-.42c0-2.65,0-3.13,0-3.67s-.14-1-.76-1.12a4.41,4.41,0,0,0-.47,0c-.18,0-.21,0-.21,0s.06-.06.26-.06c.57,0,1.33,0,1.69,0h.51c.38,0,1,0,1.38,0,.2,0,.27,0,.27.06s-.06,0-.18,0a2.48,2.48,0,0,0-.45,0c-.44.1-.54.59-.57,1.12s0,1,0,3.67v3c0,1.66,0,3,.08,3.69.06.49.16,1,.68,1.1a6.45,6.45,0,0,0,.73,0c.11,0,.14,0,.14,0s0,.06-.36.06" transform="translate(-441.5 -308.05)"/><path class="cls-2" d="M459.15,308.29c-.51,0-1.58,0-1.67,0s-1.15,0-1.92,0c-.19,0-.26,0-.27.06a2.92,2.92,0,0,1,1.41.23,3,3,0,0,1,.78.52,3.61,3.61,0,0,1,.71-.53,2,2,0,0,1,1.23-.22s-.09-.06-.27-.06" transform="translate(-441.5 -308.05)"/><path class="cls-2" d="M468,308.29c-.51,0-1.58,0-1.66,0s-1.16,0-1.92,0c-.19,0-.27,0-.27.06a2.9,2.9,0,0,1,1.4.23,3.13,3.13,0,0,1,.79.52,3.5,3.5,0,0,1,.7-.53,2,2,0,0,1,1.23-.22s-.09-.06-.27-.06" transform="translate(-441.5 -308.05)"/><path class="cls-1" d="M467.06,320.88a2.76,2.76,0,0,1-.74-.54,3.89,3.89,0,0,1-.7.54,2.11,2.11,0,0,1-1.23.21s.07.05.26.05c.51,0,1.58-.05,1.67-.05s1.14.05,2,.05c.27,0,.34,0,.37-.05a3.21,3.21,0,0,1-1.6-.21" transform="translate(-441.5 -308.05)"/><path class="cls-1" d="M458.22,320.88a3.14,3.14,0,0,1-.74-.54,3.76,3.76,0,0,1-.69.54,2.15,2.15,0,0,1-1.24.21s.08.05.27.05c.51,0,1.58-.05,1.66-.05s1.14.05,2,.05c.28,0,.35,0,.37-.05a3.24,3.24,0,0,1-1.6-.21" transform="translate(-441.5 -308.05)"/><path class="cls-15" d="M468.51,321a6.54,6.54,0,0,1-.73,0c-.36-.05-.52-.33-.6-.66a3.18,3.18,0,0,1-.06-.43c-.09-.71-.09-2.06-.09-3.69v-3c0-2.65,0-3.13,0-3.67a2.94,2.94,0,0,1,.05-.45c.07-.35.21-.6.51-.66a2.32,2.32,0,0,1,.44,0c.1,0,.19,0,.19-.05h0a2,2,0,0,0-1.23.22,3.5,3.5,0,0,0-.7.53v11.23h0a2.76,2.76,0,0,0,.74.54,3.21,3.21,0,0,0,1.6.21v0s0-.05-.15-.05" transform="translate(-441.5 -308.05)"/><path class="cls-16" d="M456.7,308.58a2.92,2.92,0,0,0-1.41-.23h0s.07.05.22.05a2.88,2.88,0,0,1,.48,0,.79.79,0,0,1,.69.66,3.06,3.06,0,0,1,.06.45c0,.54,0,1,0,3.67v3c0,1.63,0,3-.08,3.69,0,.14-.05.29-.07.43-.07.33-.19.61-.43.66a2.85,2.85,0,0,1-.51,0c-.12,0-.13,0-.13.05v0a2.15,2.15,0,0,0,1.24-.21,3.76,3.76,0,0,0,.69-.54h0V309.1a3,3,0,0,0-.78-.52" transform="translate(-441.5 -308.05)"/><path class="cls-17" d="M459.68,321a6.45,6.45,0,0,1-.73,0c-.37-.05-.52-.33-.6-.66,0-.14-.05-.29-.07-.43-.08-.71-.08-2.06-.08-3.69v-1.8s0-.07,0-.08L458,314l.21-.33s0,0,0-.08v-.37c0-2.65,0-3.13,0-3.67,0-.17,0-.31,0-.45.07-.35.21-.6.51-.66a2.38,2.38,0,0,1,.44,0c.11,0,.19,0,.19-.05h0a2,2,0,0,0-1.23.22,3.61,3.61,0,0,0-.71.53v11.23h0a3.14,3.14,0,0,0,.74.54,3.24,3.24,0,0,0,1.6.21v0s0-.05-.15-.05" transform="translate(-441.5 -308.05)"/><path class="cls-2" d="M465.59,313.66h-7.37L458,314h7.76l-.18-.34" transform="translate(-441.5 -308.05)"/><path class="cls-18" d="M465.53,308.58a2.9,2.9,0,0,0-1.4-.23h0s.06.05.22.05a2.74,2.74,0,0,1,.47,0,.79.79,0,0,1,.69.66,3.06,3.06,0,0,1,.06.45c0,.54,0,1,0,3.67v.37s0,.06,0,.07l.18.34-.17.41v1.8c0,1.63,0,3-.08,3.69,0,.14,0,.29-.07.43-.07.33-.18.61-.42.66a3,3,0,0,1-.51,0c-.12,0-.14,0-.14.05v0a2.11,2.11,0,0,0,1.23-.21,3.89,3.89,0,0,0,.7-.54h0V309.1a3.13,3.13,0,0,0-.79-.52" transform="translate(-441.5 -308.05)"/><path class="cls-19" d="M465.52,314H458l.21.33h7.36s0,0,0,.08l.17-.41h-.25" transform="translate(-441.5 -308.05)"/><path class="cls-20" d="M458.48,308.43a1.09,1.09,0,0,0-.29.14,3.61,3.61,0,0,0-.71.53v10.19h.76c0-.75,0-1.83,0-3.08v-1.8s0-.07,0-.08L458,314l.21-.33s0,0,0-.08v-.37c0-2.25,0-2.93,0-3.42,0-.09,0-.17,0-.25s0-.31,0-.45a.85.85,0,0,1,.3-.57l-.1-.1" transform="translate(-441.5 -308.05)"/><path class="cls-21" d="M467.32,308.43a1,1,0,0,0-.3.14,3.5,3.5,0,0,0-.7.53v10.19h.75c0-.75,0-1.83,0-3.08v-3c0-2.25,0-2.93,0-3.42,0-.09,0-.17,0-.25a2.06,2.06,0,0,1,.05-.45.85.85,0,0,1,.3-.57l-.1-.1" transform="translate(-441.5 -308.05)"/><path class="cls-22" d="M456.7,309.22a3,3,0,0,1,0,.33c0,.54,0,1,0,3.67v3c0,1.63,0,3-.08,3.69,0,.1,0,.2-.05.3h.84v-11h-.78" transform="translate(-441.5 -308.05)"/><path class="cls-23" d="M466.32,309.14h-.8a2.42,2.42,0,0,1,.05.41c0,.54,0,1,0,3.67v.37s0,.06,0,.07l.18.34-.17.41v1.8c0,1.63,0,3-.08,3.69V320h.81V309.14" transform="translate(-441.5 -308.05)"/><path class="cls-24" d="M458.22,320.88a3.14,3.14,0,0,1-.74-.54,3.76,3.76,0,0,1-.69.54,2.15,2.15,0,0,1-1.24.21s.08.05.27.05c.51,0,1.58-.05,1.66-.05s1.14.05,2,.05c.28,0,.35,0,.37-.05a3.24,3.24,0,0,1-1.6-.21" transform="translate(-441.5 -308.05)"/><path class="cls-25" d="M467.06,320.88a2.76,2.76,0,0,1-.74-.54,3.89,3.89,0,0,1-.7.54,2.11,2.11,0,0,1-1.23.21s.07.05.26.05c.51,0,1.58-.05,1.67-.05s1.14.05,2,.05c.27,0,.34,0,.37-.05a3.21,3.21,0,0,1-1.6-.21" transform="translate(-441.5 -308.05)"/><path class="cls-26" d="M465.59,313.66h-7.37L458,314h7.76l-.18-.34" transform="translate(-441.5 -308.05)"/><path class="cls-27" d="M465.52,314H458l.21.33h7.36s0,0,0,.08l.17-.41h-.25" transform="translate(-441.5 -308.05)"/><path class="cls-28" d="M459.68,321a6.45,6.45,0,0,1-.73,0c-.37-.05-.52-.33-.6-.66,0-.14-.05-.29-.07-.43s0-.37,0-.61h-.76v1h0a3.14,3.14,0,0,0,.74.54,3.24,3.24,0,0,0,1.6.21v0s0-.05-.15-.05" transform="translate(-441.5 -308.05)"/><path class="cls-29" d="M459.42,308.35a3.08,3.08,0,0,0-.94.08l.1.1a.67.67,0,0,1,.21-.09,2.38,2.38,0,0,1,.44,0c.11,0,.19,0,.19-.05h0" transform="translate(-441.5 -308.05)"/><path class="cls-30" d="M468.25,308.35a3,3,0,0,0-.93.08l.1.1a.67.67,0,0,1,.21-.09,2.32,2.32,0,0,1,.44,0c.1,0,.18,0,.18-.05h0" transform="translate(-441.5 -308.05)"/><path class="cls-31" d="M468.51,321a6.54,6.54,0,0,1-.73,0c-.36-.05-.52-.33-.6-.66a3.18,3.18,0,0,1-.06-.43c0-.17,0-.37-.05-.61h-.75v1h0a2.76,2.76,0,0,0,.74.54,3.21,3.21,0,0,0,1.6.21v0s0-.05-.15-.05" transform="translate(-441.5 -308.05)"/><path class="cls-32" d="M457.48,309.1a3,3,0,0,0-.78-.52,2.92,2.92,0,0,0-1.41-.23h0s.07.05.22.05a2.88,2.88,0,0,1,.48,0,.79.79,0,0,1,.69.66.5.5,0,0,0,0,.12h.78v-.12" transform="translate(-441.5 -308.05)"/><path class="cls-33" d="M466.32,309.1a3.13,3.13,0,0,0-.79-.52,2.9,2.9,0,0,0-1.4-.23h0s.06.05.22.05a2.74,2.74,0,0,1,.47,0,.79.79,0,0,1,.69.66v0h.8v0" transform="translate(-441.5 -308.05)"/><path class="cls-34" d="M459.15,308.29c-.51,0-1.58,0-1.67,0s-1.15,0-1.92,0c-.19,0-.26,0-.27.06a2.92,2.92,0,0,1,1.41.23,3,3,0,0,1,.78.52,3.61,3.61,0,0,1,.71-.53,2,2,0,0,1,1.23-.22s-.09-.06-.27-.06" transform="translate(-441.5 -308.05)"/><path class="cls-35" d="M468,308.29c-.51,0-1.58,0-1.66,0s-1.16,0-1.92,0c-.19,0-.27,0-.27.06a2.9,2.9,0,0,1,1.4.23,3.13,3.13,0,0,1,.79.52,3.5,3.5,0,0,1,.7-.53,2,2,0,0,1,1.23-.22s-.09-.06-.27-.06" transform="translate(-441.5 -308.05)"/><path class="cls-36" d="M456.7,308.58a2.92,2.92,0,0,0-1.41-.23h0s.07.05.22.05a2.88,2.88,0,0,1,.48,0,.79.79,0,0,1,.69.66,3.06,3.06,0,0,1,.06.45c0,.54,0,1,0,3.67v3c0,1.63,0,3-.08,3.69,0,.14-.05.29-.07.43-.07.33-.19.61-.43.66a2.85,2.85,0,0,1-.51,0c-.12,0-.13,0-.13.05v0a2.15,2.15,0,0,0,1.24-.21,3.76,3.76,0,0,0,.69-.54h0V309.1a3,3,0,0,0-.78-.52" transform="translate(-441.5 -308.05)"/><path class="cls-37" d="M465.53,308.58a2.9,2.9,0,0,0-1.4-.23h0s.06.05.22.05a2.74,2.74,0,0,1,.47,0,.79.79,0,0,1,.69.66,3.06,3.06,0,0,1,.06.45c0,.54,0,1,0,3.67v.37s0,.06,0,.07l.18.34-.17.41v1.8c0,1.63,0,3-.08,3.69,0,.14,0,.29-.07.43-.07.33-.18.61-.42.66a3,3,0,0,1-.51,0c-.12,0-.14,0-.14.05v0a2.11,2.11,0,0,0,1.23-.21,3.89,3.89,0,0,0,.7-.54h0V309.1a3.13,3.13,0,0,0-.79-.52" transform="translate(-441.5 -308.05)"/><path class="cls-38" d="M468.51,321a6.54,6.54,0,0,1-.73,0c-.36-.05-.52-.33-.6-.66a3.18,3.18,0,0,1-.06-.43c-.09-.71-.09-2.06-.09-3.69v-3c0-2.65,0-3.13,0-3.67a2.94,2.94,0,0,1,.05-.45c.07-.35.21-.6.51-.66a2.32,2.32,0,0,1,.44,0c.1,0,.19,0,.19-.05h0a2,2,0,0,0-1.23.22,3.5,3.5,0,0,0-.7.53v11.23h0a2.76,2.76,0,0,0,.74.54,3.21,3.21,0,0,0,1.6.21v0s0-.05-.15-.05" transform="translate(-441.5 -308.05)"/><path class="cls-39" d="M459.68,321a6.45,6.45,0,0,1-.73,0c-.37-.05-.52-.33-.6-.66,0-.14-.05-.29-.07-.43-.08-.71-.08-2.06-.08-3.69v-1.8s0-.07,0-.08L458,314l.21-.33s0,0,0-.08v-.37c0-2.65,0-3.13,0-3.67,0-.17,0-.31,0-.45.07-.35.21-.6.51-.66a2.38,2.38,0,0,1,.44,0c.11,0,.19,0,.19-.05h0a2,2,0,0,0-1.23.22,3.61,3.61,0,0,0-.71.53v11.23h0a3.14,3.14,0,0,0,.74.54,3.24,3.24,0,0,0,1.6.21v0s0-.05-.15-.05" transform="translate(-441.5 -308.05)"/><path class="cls-40" d="M465.59,313.66h-7.37L458,314h7.76l-.18-.34" transform="translate(-441.5 -308.05)"/><path class="cls-41" d="M465.52,314H458l.21.33h7.36s0,0,0,.08l.17-.41h-.25" transform="translate(-441.5 -308.05)"/><path class="cls-1" d="M475.73,321.13c-.63,0-1.39,0-1.76,0h-.5c-.38,0-1,0-1.38,0s-.26-.05-.26-.06,0,0,.13,0a2.91,2.91,0,0,0,.51,0c.36-.07.43-.64.49-1.1.09-.71.09-2,.09-3.69v-3c0-2.65,0-3.13,0-3.67s-.14-1-.76-1.12a4.41,4.41,0,0,0-.47,0c-.18,0-.21,0-.21,0s.06-.06.26-.06c.57,0,1.33,0,1.69,0H474c.38,0,1,0,1.38,0,.2,0,.27,0,.27.06s-.06,0-.18,0a2.38,2.38,0,0,0-.44,0c-.45.1-.55.59-.58,1.12s0,1,0,3.67v3c0,1.66,0,3,.09,3.69.05.49.15,1,.67,1.1a6.54,6.54,0,0,0,.73,0c.11,0,.14,0,.14,0s0,.06-.36.06" transform="translate(-441.5 -308.05)"/><path class="cls-2" d="M475.42,308.29c-.51,0-1.58,0-1.66,0s-1.16,0-1.92,0c-.19,0-.26,0-.27.06a2.9,2.9,0,0,1,1.4.23,3.13,3.13,0,0,1,.79.52,3.5,3.5,0,0,1,.7-.53,2.07,2.07,0,0,1,1.24-.22s-.1-.06-.28-.06" transform="translate(-441.5 -308.05)"/><path class="cls-1" d="M474.5,320.88a2.76,2.76,0,0,1-.74-.54,3.56,3.56,0,0,1-.7.54,2.11,2.11,0,0,1-1.23.21s.07.05.26.05c.51,0,1.58-.05,1.67-.05s1.14.05,2,.05c.27,0,.35,0,.37-.05a3.21,3.21,0,0,1-1.6-.21" transform="translate(-441.5 -308.05)"/><path class="cls-42" d="M476,321a6.54,6.54,0,0,1-.73,0c-.36-.05-.52-.33-.6-.66a3.18,3.18,0,0,1-.06-.43c-.09-.71-.09-2.06-.09-3.69v-3c0-2.65,0-3.13,0-3.67a2.94,2.94,0,0,1,.05-.45c.07-.35.21-.6.51-.66a2.32,2.32,0,0,1,.44,0c.1,0,.19,0,.19-.05h0a2.07,2.07,0,0,0-1.24.22,3.5,3.5,0,0,0-.7.53v11.23h0a2.76,2.76,0,0,0,.74.54,3.21,3.21,0,0,0,1.6.21v0s0-.05-.15-.05" transform="translate(-441.5 -308.05)"/><path class="cls-43" d="M473,308.58a2.9,2.9,0,0,0-1.4-.23h0s.07.05.22.05a2.67,2.67,0,0,1,.47,0,.79.79,0,0,1,.69.66,3.06,3.06,0,0,1,.06.45c0,.54,0,1,0,3.67v3c0,1.63,0,3-.09,3.69,0,.14,0,.29-.07.43-.07.33-.18.61-.42.66a2.91,2.91,0,0,1-.51,0c-.12,0-.14,0-.14.05v0a2.11,2.11,0,0,0,1.23-.21,3.56,3.56,0,0,0,.7-.54h0V309.1a3.13,3.13,0,0,0-.79-.52" transform="translate(-441.5 -308.05)"/><path class="cls-44" d="M474.56,319.9c-.09-.71-.09-2.06-.09-3.69v-3c0-2.65,0-3.13,0-3.67a2.94,2.94,0,0,1,.05-.45.84.84,0,0,1,.29-.56l-.11-.11-.28.14a3.5,3.5,0,0,0-.7.53V320h.81c0-.05,0-.09,0-.14" transform="translate(-441.5 -308.05)"/><path class="cls-45" d="M473.76,309.15H473a2.3,2.3,0,0,1,.05.4c0,.54,0,1,0,3.67v3c0,1.63,0,3-.09,3.69V320h.81V309.15" transform="translate(-441.5 -308.05)"/><path class="cls-46" d="M475.07,308.44a2.32,2.32,0,0,1,.44,0c.1,0,.19,0,.19-.05h0a3.19,3.19,0,0,0-1,.08l.11.11a.5.5,0,0,1,.22-.1" transform="translate(-441.5 -308.05)"/><path class="cls-47" d="M476,321a6.54,6.54,0,0,1-.73,0c-.36-.05-.52-.33-.6-.66,0-.1,0-.19-.05-.29h-.81v.29h0a2.76,2.76,0,0,0,.74.54,3.21,3.21,0,0,0,1.6.21v0s0-.05-.15-.05" transform="translate(-441.5 -308.05)"/><path class="cls-48" d="M475.42,308.29c-.51,0-1.58,0-1.66,0s-1.16,0-1.92,0c-.19,0-.26,0-.27.06a2.9,2.9,0,0,1,1.4.23,3.13,3.13,0,0,1,.79.52,3.5,3.5,0,0,1,.7-.53,2.07,2.07,0,0,1,1.24-.22s-.1-.06-.28-.06" transform="translate(-441.5 -308.05)"/><path class="cls-49" d="M474.5,320.88a2.76,2.76,0,0,1-.74-.54,3.56,3.56,0,0,1-.7.54,2.11,2.11,0,0,1-1.23.21s.07.05.26.05c.51,0,1.58-.05,1.67-.05s1.14.05,2,.05c.27,0,.35,0,.37-.05a3.21,3.21,0,0,1-1.6-.21" transform="translate(-441.5 -308.05)"/><path class="cls-50" d="M473.76,309.1a3.13,3.13,0,0,0-.79-.52,2.9,2.9,0,0,0-1.4-.23h0s.07.05.22.05a2.67,2.67,0,0,1,.47,0,.79.79,0,0,1,.69.66v0h.8v0" transform="translate(-441.5 -308.05)"/><path class="cls-51" d="M476,321a6.54,6.54,0,0,1-.73,0c-.36-.05-.52-.33-.6-.66a3.18,3.18,0,0,1-.06-.43c-.09-.71-.09-2.06-.09-3.69v-3c0-2.65,0-3.13,0-3.67a2.94,2.94,0,0,1,.05-.45c.07-.35.21-.6.51-.66a2.32,2.32,0,0,1,.44,0c.1,0,.19,0,.19-.05h0a2.07,2.07,0,0,0-1.24.22,3.5,3.5,0,0,0-.7.53v11.23h0a2.76,2.76,0,0,0,.74.54,3.21,3.21,0,0,0,1.6.21v0s0-.05-.15-.05" transform="translate(-441.5 -308.05)"/><path class="cls-52" d="M473,308.58a2.9,2.9,0,0,0-1.4-.23h0s.07.05.22.05a2.67,2.67,0,0,1,.47,0,.79.79,0,0,1,.69.66,3.06,3.06,0,0,1,.06.45c0,.54,0,1,0,3.67v3c0,1.63,0,3-.09,3.69,0,.14,0,.29-.07.43-.07.33-.18.61-.42.66a2.91,2.91,0,0,1-.51,0c-.12,0-.14,0-.14.05v0a2.11,2.11,0,0,0,1.23-.21,3.56,3.56,0,0,0,.7-.54h0V309.1a3.13,3.13,0,0,0-.79-.52" transform="translate(-441.5 -308.05)"/><path class="cls-1" d="M483.2,321.13c-.63,0-1.39,0-1.75,0H481c-.38,0-1,0-1.38,0s-.26-.05-.26-.06,0,0,.12,0a2.91,2.91,0,0,0,.51,0c.36-.07.44-.64.5-1.1.08-.71.08-2,.08-3.69v-3c0-2.65,0-3.13,0-3.67s-.14-1-.75-1.12a4.64,4.64,0,0,0-.48,0c-.17,0-.21,0-.21,0s.07-.06.26-.06c.58,0,1.33,0,1.7,0h.51c.38,0,1,0,1.38,0,.19,0,.26,0,.26.06s-.06,0-.18,0a2.38,2.38,0,0,0-.44,0c-.45.1-.54.59-.57,1.12s0,1,0,3.67v3c0,1.66,0,3,.09,3.69.05.49.15,1,.67,1.1a6.54,6.54,0,0,0,.73,0c.11,0,.15,0,.15,0s0,.06-.37.06" transform="translate(-441.5 -308.05)"/><path class="cls-2" d="M482.9,308.29c-.51,0-1.58,0-1.67,0s-1.15,0-1.92,0c-.19,0-.26,0-.27.06a2.92,2.92,0,0,1,1.41.23,3,3,0,0,1,.78.52,3.61,3.61,0,0,1,.71-.53,2,2,0,0,1,1.23-.22s-.09-.06-.27-.06" transform="translate(-441.5 -308.05)"/><path class="cls-1" d="M482,320.88a3.14,3.14,0,0,1-.74-.54,3.76,3.76,0,0,1-.69.54,2.15,2.15,0,0,1-1.24.21s.08.05.27.05c.51,0,1.58-.05,1.66-.05s1.14.05,2,.05c.28,0,.35,0,.37-.05a3.24,3.24,0,0,1-1.6-.21" transform="translate(-441.5 -308.05)"/><path class="cls-53" d="M483.43,321a6.71,6.71,0,0,1-.74,0c-.36-.05-.51-.33-.59-.66,0-.14-.05-.29-.07-.43-.08-.71-.08-2.06-.08-3.69v-3c0-2.65,0-3.13,0-3.67,0-.17,0-.31,0-.45.07-.35.21-.6.51-.66a2.38,2.38,0,0,1,.44,0c.11,0,.19,0,.19-.05h0a2,2,0,0,0-1.23.22,3.61,3.61,0,0,0-.71.53v11.23h0a3.14,3.14,0,0,0,.74.54,3.24,3.24,0,0,0,1.6.21v0s0-.05-.15-.05" transform="translate(-441.5 -308.05)"/><path class="cls-54" d="M480.45,308.58a2.92,2.92,0,0,0-1.41-.23h0s.07.05.22.05a2.88,2.88,0,0,1,.48,0,.79.79,0,0,1,.69.66,3.06,3.06,0,0,1,.06.45c0,.54,0,1,0,3.67v3c0,1.63,0,3-.08,3.69,0,.14-.05.29-.07.43-.07.33-.19.61-.43.66a2.85,2.85,0,0,1-.51,0c-.12,0-.13,0-.13.05v0a2.15,2.15,0,0,0,1.24-.21,3.76,3.76,0,0,0,.69-.54h0V309.1a3,3,0,0,0-.78-.52" transform="translate(-441.5 -308.05)"/><path class="cls-55" d="M482,319.9c-.08-.71-.08-2.06-.08-3.69v-3c0-2.65,0-3.13,0-3.67,0-.17,0-.31,0-.45a.89.89,0,0,1,.29-.56l-.1-.11a1.83,1.83,0,0,0-.28.14,3.61,3.61,0,0,0-.71.53V320h.82c0-.05,0-.09,0-.14" transform="translate(-441.5 -308.05)"/><path class="cls-56" d="M481.23,309.15h-.79a4,4,0,0,1,.05.4c0,.54,0,1,0,3.67v3c0,1.63,0,3-.08,3.69l0,.08h.81V309.15" transform="translate(-441.5 -308.05)"/><path class="cls-57" d="M482.54,308.44a2.38,2.38,0,0,1,.44,0c.11,0,.19,0,.19-.05h0a3.12,3.12,0,0,0-.95.08l.1.11a.55.55,0,0,1,.22-.1" transform="translate(-441.5 -308.05)"/><path class="cls-58" d="M483.43,321a6.71,6.71,0,0,1-.74,0c-.36-.05-.51-.33-.59-.66a2.93,2.93,0,0,1-.05-.29h-.82v.29h0a3.14,3.14,0,0,0,.74.54,3.24,3.24,0,0,0,1.6.21v0s0-.05-.15-.05" transform="translate(-441.5 -308.05)"/><path class="cls-59" d="M482.9,308.29c-.51,0-1.58,0-1.67,0s-1.15,0-1.92,0c-.19,0-.26,0-.27.06a2.92,2.92,0,0,1,1.41.23,3,3,0,0,1,.78.52,3.61,3.61,0,0,1,.71-.53,2,2,0,0,1,1.23-.22s-.09-.06-.27-.06" transform="translate(-441.5 -308.05)"/><path class="cls-60" d="M482,320.88a3.14,3.14,0,0,1-.74-.54,3.76,3.76,0,0,1-.69.54,2.15,2.15,0,0,1-1.24.21s.08.05.27.05c.51,0,1.58-.05,1.66-.05s1.14.05,2,.05c.28,0,.35,0,.37-.05a3.24,3.24,0,0,1-1.6-.21" transform="translate(-441.5 -308.05)"/><path class="cls-61" d="M481.23,309.1a3,3,0,0,0-.78-.52,2.92,2.92,0,0,0-1.41-.23h0s.07.05.22.05a2.88,2.88,0,0,1,.48,0,.79.79,0,0,1,.69.66v0h.79v0" transform="translate(-441.5 -308.05)"/><path class="cls-62" d="M483.43,321a6.71,6.71,0,0,1-.74,0c-.36-.05-.51-.33-.59-.66,0-.14-.05-.29-.07-.43-.08-.71-.08-2.06-.08-3.69v-3c0-2.65,0-3.13,0-3.67,0-.17,0-.31,0-.45.07-.35.21-.6.51-.66a2.38,2.38,0,0,1,.44,0c.11,0,.19,0,.19-.05h0a2,2,0,0,0-1.23.22,3.61,3.61,0,0,0-.71.53v11.23h0a3.14,3.14,0,0,0,.74.54,3.24,3.24,0,0,0,1.6.21v0s0-.05-.15-.05" transform="translate(-441.5 -308.05)"/><path class="cls-63" d="M480.45,308.58a2.92,2.92,0,0,0-1.41-.23h0s.07.05.22.05a2.88,2.88,0,0,1,.48,0,.79.79,0,0,1,.69.66,3.06,3.06,0,0,1,.06.45c0,.54,0,1,0,3.67v3c0,1.63,0,3-.08,3.69,0,.14-.05.29-.07.43-.07.33-.19.61-.43.66a2.85,2.85,0,0,1-.51,0c-.12,0-.13,0-.13.05v0a2.15,2.15,0,0,0,1.24-.21,3.76,3.76,0,0,0,.69-.54h0V309.1a3,3,0,0,0-.78-.52" transform="translate(-441.5 -308.05)"/><path class="cls-1" d="M490.75,308.86a4.5,4.5,0,0,0-1.11.12c-.19.08-.21.12-.21.28s0,.72,0,1.25c0,.74,0,1.67,0,2.44v2.1c0,1.88,0,3.38,0,3.69a4.49,4.49,0,0,0,.19,1.3c.42.61,1.77.68,2.9.68a5.72,5.72,0,0,0,4.05-1.58,4.37,4.37,0,0,0,1-1.77,7.53,7.53,0,0,0,.35-2.3,6.46,6.46,0,0,0-.55-2.68,6.14,6.14,0,0,0-1.08-1.61,5.66,5.66,0,0,0-2.62-1.59,10.69,10.69,0,0,0-2.94-.33m1.73,12.43c-.6,0-1.39,0-2.36-.11l-.95-.07-.46,0h-.29c-.38,0-1,0-1.38,0s-.26-.05-.26-.06,0,0,.13,0a2.91,2.91,0,0,0,.51,0c.36-.07.43-.64.49-1.1.09-.71.09-2,.09-3.69v-3c0-2.65,0-3.13,0-3.67s-.14-1-.76-1.12a4.41,4.41,0,0,0-.47,0c-.18,0-.21,0-.21,0s.06-.06.26-.06c.73,0,1.27,0,1.59,0h.74c.44,0,1.18,0,1.88,0h.71a13.4,13.4,0,0,1,3.05.29,7,7,0,0,1,1.6.58,5.51,5.51,0,0,1,1.45,1.07,6.06,6.06,0,0,1,1.64,4.31,7.11,7.11,0,0,1-.56,2.83,6.68,6.68,0,0,1-1.27,2,5.87,5.87,0,0,1-1.76,1.27,8,8,0,0,1-3.38.69" transform="translate(-441.5 -308.05)"/><path class="cls-2" d="M488.71,319.17h.76v0h-.76v0" transform="translate(-441.5 -308.05)"/><path class="cls-64" d="M497.81,310.23c-2-2.1-5.13-1.94-6.81-1.94-1,0-2.09,0-2.29,0s-.85,0-1.92,0c-.19,0-.27,0-.27.06a2.9,2.9,0,0,1,1.4.23,3.13,3.13,0,0,1,.79.52,2.45,2.45,0,0,1,.66-.39,3.88,3.88,0,0,1,1.3-.12c1.34,0,8-.45,8,6.2,0,6.43-6.05,6.22-6.27,6.22s-2.95,0-3.71-.67a2.87,2.87,0,0,1-.93.65,2.79,2.79,0,0,1-1,.1s.07.05.26.05c.51,0,1.58-.05,1.67-.05l1.41.1c.73.05,1.63.1,2.36.1a6.77,6.77,0,0,0,5.15-2,7,7,0,0,0,1.83-4.8,6.05,6.05,0,0,0-1.65-4.31" transform="translate(-441.5 -308.05)"/><path class="cls-65" d="M487.92,308.58a2.9,2.9,0,0,0-1.4-.23h0s.07.05.22.05a2.74,2.74,0,0,1,.47,0c.56.09.72.53.75,1.11s0,1,0,3.67v3c0,1.63,0,3-.09,3.69-.07.49-.15,1-.49,1.09a3,3,0,0,1-.51,0c-.12,0-.14,0-.14.05v0a2.79,2.79,0,0,0,1-.1,2.87,2.87,0,0,0,.93-.65V309.1a3.13,3.13,0,0,0-.79-.52" transform="translate(-441.5 -308.05)"/><path class="cls-66" d="M493.06,308.68a17.38,17.38,0,0,0-2.39-.09,4.11,4.11,0,0,0-1.28.11l.24.29h0a5.15,5.15,0,0,1,1.11-.11,11.75,11.75,0,0,1,2.31.18,5.72,5.72,0,0,1,3.24,1.74,6.05,6.05,0,0,1,1.63,4.28,5.93,5.93,0,0,1-1.36,4.07,5.7,5.7,0,0,1-4,1.58c-2.12,0-2.67-.36-2.89-.68a2.89,2.89,0,0,1-.16-.89h-.77v1.19c.76.69,3.57.67,3.71.67s6.27.21,6.27-6.22c0-4.62-3.22-5.81-5.63-6.11" transform="translate(-441.5 -308.05)"/><path class="cls-67" d="M489.44,310.07v-.81c0-.15,0-.19.19-.27l-.24-.29h0a2.45,2.45,0,0,0-.66.39v10h.77c0-.14,0-.29,0-.41,0-.32,0-1.88,0-3.69V313c0-.93,0-2.06,0-2.88" transform="translate(-441.5 -308.05)"/><path class="cls-68" d="M487.93,309.25a2.53,2.53,0,0,1,0,.3c0,.54,0,1,0,3.67v3c0,1.63,0,3-.09,3.69,0,.05,0,.1,0,.15h.82v-10.8h-.78" transform="translate(-441.5 -308.05)"/><path class="cls-69" d="M492.53,320.72c-2.12,0-2.67-.36-2.89-.68a2.89,2.89,0,0,1-.16-.89c0-.14,0-.29,0-.41,0-.32,0-1.88,0-3.69V313c0-.93,0-2.06,0-2.88v-.86l-.35-.37a2.5,2.5,0,0,0-.38.26v11.24c.76.69,3.57.67,3.71.67a7.36,7.36,0,0,0,1.82-.2v-.33a6.42,6.42,0,0,1-1.71.24" transform="translate(-441.5 -308.05)"/><path class="cls-70" d="M488.71,309.1a3.13,3.13,0,0,0-.79-.52,2.9,2.9,0,0,0-1.4-.23h0s.07.05.22.05a2.74,2.74,0,0,1,.47,0,.84.84,0,0,1,.72.81h.78v-.15" transform="translate(-441.5 -308.05)"/><path class="cls-71" d="M493.06,308.68l-.46-.05V309l.46.08a5.86,5.86,0,0,1,4.47,3.7h.91c-.8-2.95-3.37-3.82-5.38-4.07" transform="translate(-441.5 -308.05)"/><path class="cls-72" d="M499.46,314.54a6.05,6.05,0,0,0-1.65-4.31,6.12,6.12,0,0,0-3.26-1.7V309c2.07.6,4.14,2.11,4.14,5.81v.12h.76c0-.12,0-.24,0-.37" transform="translate(-441.5 -308.05)"/><path class="cls-73" d="M488.71,308.34c-.22,0-.85,0-1.92,0-.19,0-.27,0-.27.06a2.9,2.9,0,0,1,1.4.23,3.13,3.13,0,0,1,.79.52,2.45,2.45,0,0,1,.66-.39,3.18,3.18,0,0,1,1.11-.12v-.3c-.84,0-1.6,0-1.77,0" transform="translate(-441.5 -308.05)"/><path class="cls-74" d="M488.71,320.34a2.87,2.87,0,0,1-.93.65,2.79,2.79,0,0,1-1,.1s.07.05.26.05c.51,0,1.58-.05,1.67-.05l1.41.1c.69.05,1.54.1,2.25.1V321c-.38,0-2.94,0-3.66-.67" transform="translate(-441.5 -308.05)"/><path class="cls-75" d="M487.92,308.58a2.9,2.9,0,0,0-1.4-.23h0s.07.05.22.05a2.74,2.74,0,0,1,.47,0c.56.09.72.53.75,1.11s0,1,0,3.67v3c0,1.63,0,3-.09,3.69-.07.49-.15,1-.49,1.09a3,3,0,0,1-.51,0c-.12,0-.14,0-.14.05v0a2.79,2.79,0,0,0,1-.1,2.87,2.87,0,0,0,.93-.65V309.1a3.13,3.13,0,0,0-.79-.52" transform="translate(-441.5 -308.05)"/><path class="cls-76" d="M489.48,319.15c0-.14,0-.29,0-.41,0-.32,0-1.88,0-3.69V313c0-.93,0-2.06,0-2.88v-.81a.45.45,0,0,1,0-.13l-.43-.25-.31.22V320h.92a3.06,3.06,0,0,1-.15-.87" transform="translate(-441.5 -308.05)"/><path class="cls-1" d="M507.72,321.37a5.21,5.21,0,0,1-3.5-1.2,4.29,4.29,0,0,1-1.05-1.61,8.05,8.05,0,0,1-.43-2.86v-2.48c0-2.65,0-3.13,0-3.67s-.14-1-.75-1.12a4.64,4.64,0,0,0-.48,0c-.17,0-.21,0-.21,0s.07-.06.26-.06c.58,0,1.33,0,1.7,0h.52c.4,0,1.06,0,1.42,0,.19,0,.26,0,.26.06s-.06,0-.18,0a2.38,2.38,0,0,0-.44,0c-.45.1-.54.59-.57,1.12s0,1,0,3.67v2.38c0,2.63.65,3.6,1.28,4.2a3.31,3.31,0,0,0,2.58.94,3.55,3.55,0,0,0,2.67-1.23,4,4,0,0,0,.78-1.79,11.23,11.23,0,0,0,.2-2.38v-2.12c0-2.65,0-3.13,0-3.67s-.14-1-.75-1.12a4.64,4.64,0,0,0-.48,0c-.17,0-.21,0-.21,0s.07-.06.26-.06c.58,0,1.26,0,1.59,0h.48c.31,0,.81,0,1.16,0,.19,0,.27,0,.27.06s-.07,0-.18,0a2.43,2.43,0,0,0-.45,0c-.44.1-.54.59-.57,1.12s0,1,0,3.67V315a11.64,11.64,0,0,1-.26,2.77,4.36,4.36,0,0,1-1.29,2.3,4.67,4.67,0,0,1-1.83,1,5.66,5.66,0,0,1-1.66.22" transform="translate(-441.5 -308.05)"/><path class="cls-2" d="M507.84,320.74v.33h0v-.33h0" transform="translate(-441.5 -308.05)"/><path class="cls-2" d="M512.24,309c.16-.12.23-.18.59-.42s.53-.21,1.17-.21c0,0-.09-.06-.27-.06-.51,0-1.32,0-1.42,0s-1,0-1.81,0c-.19,0-.26,0-.27.06a3,3,0,0,1,1.22.14c.22.11.62.38.79.49" transform="translate(-441.5 -308.05)"/><path class="cls-2" d="M503.47,309.1a4.91,4.91,0,0,1,.75-.54,2.13,2.13,0,0,1,1.22-.21s-.09-.06-.27-.06c-.51,0-1.63,0-1.72,0s-1.15,0-1.92,0c-.19,0-.26,0-.27.06a3,3,0,0,1,1.44.23,2.94,2.94,0,0,1,.77.52" transform="translate(-441.5 -308.05)"/><path class="cls-77" d="M507.85,321.07v-.34a3.26,3.26,0,0,1-2.36-.93c-.73-.7-1.27-1.75-1.27-4.2v-2.38c0-2.65,0-3.13,0-3.67s.16-1,.56-1.11a2.38,2.38,0,0,1,.44,0c.11,0,.19,0,.19-.05h0a2.13,2.13,0,0,0-1.22.21,4.91,4.91,0,0,0-.75.54v6.6c0,4.44,2.38,5.32,4.38,5.37" transform="translate(-441.5 -308.05)"/><path class="cls-78" d="M508.06,321.08a4.18,4.18,0,0,0,3.59-2.24,9.06,9.06,0,0,0,.59-3.56V309c-.17-.11-.57-.38-.79-.49a3,3,0,0,0-1.22-.14h0s.07.05.22.05a2.88,2.88,0,0,1,.48,0c.56.09.71.53.75,1.11s0,1,0,3.67v2.12a6.63,6.63,0,0,1-1,4.17,3.6,3.6,0,0,1-2.67,1.22h-.21v.34h.21" transform="translate(-441.5 -308.05)"/><path class="cls-79" d="M503.47,315.7v-6.6a2.94,2.94,0,0,0-.77-.52,3,3,0,0,0-1.44-.23h0s.07.05.22.05a2.88,2.88,0,0,1,.48,0c.56.09.71.53.75,1.11s0,1,0,3.67v2.48c0,2.48.65,3.67,1.48,4.47a5.2,5.2,0,0,0,3.5,1.21h.13v-.31c-2-.05-4.38-.93-4.38-5.37" transform="translate(-441.5 -308.05)"/><path class="cls-80" d="M514,308.35c-.64,0-.85,0-1.17.21s-.43.3-.59.42v6.3a9.25,9.25,0,0,1-.59,3.56,4.18,4.18,0,0,1-3.59,2.24h-.21v.31a5,5,0,0,0,3.37-1.26c1.36-1.21,1.56-3.25,1.56-5.08v-1.82c0-2.65,0-3.13,0-3.67s.16-1,.57-1.11a2.32,2.32,0,0,1,.44,0c.1,0,.18,0,.18-.05h0" transform="translate(-441.5 -308.05)"/><path class="cls-81" d="M503.47,315.7v-6.4h-.79l0,.25c0,.54,0,1,0,3.67v2.48c0,.24,0,.47,0,.69h.73c0-.22,0-.45,0-.69" transform="translate(-441.5 -308.05)"/><path class="cls-82" d="M504.22,315.6v-2.38c0-2.65,0-3.13,0-3.67a1.59,1.59,0,0,1,.28-1l-.19-.1-.12.07a4.91,4.91,0,0,0-.75.54v6.6c0,.24,0,.47,0,.69h.75c0-.25,0-.51,0-.79" transform="translate(-441.5 -308.05)"/><path class="cls-83" d="M512.24,315.28V309h-.65a2,2,0,0,1,.09.53c0,.54,0,1,0,3.67v2.16h.53v-.1" transform="translate(-441.5 -308.05)"/><path class="cls-84" d="M512.78,315v-1.82c0-2.65,0-3.13,0-3.67a1.71,1.71,0,0,1,.25-.92l-.18-.1,0,0c-.36.24-.43.3-.59.42v6.4h.54V315" transform="translate(-441.5 -308.05)"/><path class="cls-85" d="M504.81,308.44a2.38,2.38,0,0,1,.44,0c.11,0,.19,0,.19-.05h0a2.4,2.4,0,0,0-1.1.14l.19.1a.51.51,0,0,1,.28-.15" transform="translate(-441.5 -308.05)"/><path class="cls-86" d="M503.47,309.1a2.94,2.94,0,0,0-.77-.52,3,3,0,0,0-1.44-.23h0s.07.05.22.05a2.88,2.88,0,0,1,.48,0c.48.07.66.4.72.86h.79v-.2" transform="translate(-441.5 -308.05)"/><path class="cls-87" d="M512.24,309c.16-.12.23-.18.59-.42s.53-.21,1.17-.21c0,0-.09-.06-.27-.06-.51,0-1.32,0-1.42,0s-1,0-1.81,0c-.19,0-.26,0-.27.06a3,3,0,0,1,1.22.14c.22.11.62.38.79.49" transform="translate(-441.5 -308.05)"/><path class="cls-88" d="M503.47,309.1a4.91,4.91,0,0,1,.75-.54,2.13,2.13,0,0,1,1.22-.21s-.09-.06-.27-.06c-.51,0-1.63,0-1.72,0s-1.15,0-1.92,0c-.19,0-.26,0-.27.06a3,3,0,0,1,1.44.23,2.94,2.94,0,0,1,.77.52" transform="translate(-441.5 -308.05)"/><path class="cls-89" d="M512.24,309c-.17-.11-.57-.38-.79-.49a3,3,0,0,0-1.22-.14h0s.07.05.22.05a2.88,2.88,0,0,1,.48,0,.77.77,0,0,1,.66.58h.65v0" transform="translate(-441.5 -308.05)"/><path class="cls-90" d="M514,308.35a1.87,1.87,0,0,0-1.12.18l.18.1a.52.52,0,0,1,.32-.19,2.32,2.32,0,0,1,.44,0c.1,0,.18,0,.18-.05h0" transform="translate(-441.5 -308.05)"/><path class="cls-91" d="M508.06,320.73h-.21a3.26,3.26,0,0,1-2.36-.93,3.57,3.57,0,0,1-.93-1.5l-.51.52a4,4,0,0,0,3.8,2.25h.21a3,3,0,0,0,.5-.05v-.34a2.74,2.74,0,0,1-.5,0" transform="translate(-441.5 -308.05)"/><path class="cls-92" d="M508.06,321.08h-.21a4,4,0,0,1-3.72-2.08l-.49.49a3.59,3.59,0,0,0,.58.69,5.2,5.2,0,0,0,3.5,1.21h.13c.23,0,.47,0,.71-.05V321a3,3,0,0,1-.5.05" transform="translate(-441.5 -308.05)"/><path class="cls-93" d="M503.47,315.7v-6.4h-.79l0,.25c0,.54,0,1,0,3.67v2.48c0,.24,0,.47,0,.69h.73c0-.22,0-.45,0-.69" transform="translate(-441.5 -308.05)"/><path class="cls-94" d="M504.22,315.6v-2.38c0-2.65,0-3.13,0-3.67a1.59,1.59,0,0,1,.28-1l-.19-.1-.12.07a4.91,4.91,0,0,0-.75.54v6.6c0,.24,0,.47,0,.69h.75c0-.25,0-.51,0-.79" transform="translate(-441.5 -308.05)"/><path class="cls-95" d="M512.24,315.28V309h-.65a2,2,0,0,1,.09.53c0,.54,0,1,0,3.67v2.16h.53v-.1" transform="translate(-441.5 -308.05)"/><path class="cls-96" d="M512.78,315v-1.82c0-2.65,0-3.13,0-3.67a1.71,1.71,0,0,1,.25-.92l-.18-.1,0,0c-.36.24-.43.3-.59.42v6.4h.54V315" transform="translate(-441.5 -308.05)"/><path class="cls-1" d="M532.15,321.13c-1,0-2.33-.05-2.94-.1-.43,0-.47-.09-.47-.11s0,0,0,0a.1.1,0,0,0,.08,0c.14-.1.1-.39.07-.69h0l-.82-8.88h0l-4.22,8.94c-.35.75-.47.9-.55.9s-.21-.19-.52-.78c-.18-.34-.66-1.28-1.92-3.82l-.07-.12c-.15-.32-2.11-4.52-2.29-5h0l-.69,8v.08c0,.24,0,.46,0,.72s.18.68.47.74a2.48,2.48,0,0,0,.61.07c.12,0,.16,0,.16,0s0,.06-.24.06c-.43,0-1,0-1.31,0h-.32l-.39,0-1,0c-.23,0-.28-.05-.28-.06s0,0,.16,0a2.19,2.19,0,0,0,.51,0c.52-.1.6-.79.68-1.46v-.08l1.2-10.9c.06-.42.17-.48.23-.48s.16.12.3.42L523.65,319h0l4.93-10.53c.16-.35.24-.42.33-.42s.13,0,.18.47L530.24,319c.07.63.18,1.69.92,1.93a3.5,3.5,0,0,0,1.06.15c.12,0,.17,0,.17,0s0,.06-.24.06" transform="translate(-441.5 -308.05)"/><path class="cls-1" d="M517.87,321a2.28,2.28,0,0,1-.63-.5,2.88,2.88,0,0,1-.69.49,2.24,2.24,0,0,1-1.12.12h0s.05.07.29.07c.46,0,1.27-.05,1.43-.05s1,.05,1.63.05c.2,0,.25-.05.25-.07a2.58,2.58,0,0,1-1.16-.12" transform="translate(-441.5 -308.05)"/><path class="cls-1" d="M530.64,320.86a3.89,3.89,0,0,1-.93-.53,1.17,1.17,0,0,1-.49.5.92.92,0,0,1-.49.08h0s.09.09.48.12c.64,0,2,.1,2.94.1.2,0,.25-.05.25-.07a4.19,4.19,0,0,1-1.76-.21" transform="translate(-441.5 -308.05)"/><path class="cls-97" d="M518.53,310s-.31-1.57-.32-1.9c-.08,0-.17.14-.21.49l-1.21,10.9c-.08.7-.15,1.43-.68,1.53a2.19,2.19,0,0,1-.51,0c-.1,0-.16,0-.17,0a2.24,2.24,0,0,0,1.12-.12,2.91,2.91,0,0,0,.69-.48c.29-3,1-10,1-10.12a.6.6,0,0,1,.3-.39" transform="translate(-441.5 -308.05)"/><path class="cls-2" d="M532.22,321a3.53,3.53,0,0,1-1.06-.15c-.73-.24-.85-1.31-.91-1.92l-1.14-10.42c-.05-.41-.14-.48-.19-.48l-.31,1.79,1.1,10.49a3.89,3.89,0,0,0,.93.53,4.19,4.19,0,0,0,1.76.21s0-.05-.18-.05" transform="translate(-441.5 -308.05)"/><path class="cls-2" d="M517.24,320.46h0a2.28,2.28,0,0,0,.63.5,2.58,2.58,0,0,0,1.16.12s-.07-.05-.17-.05a2.48,2.48,0,0,1-.61-.07c-.24-.05-.46-.27-.46-.73,0-.29,0-.52,0-.8l.69-8-.29-1.08c0,.07-.7,7.11-1,10.12" transform="translate(-441.5 -308.05)"/><path class="cls-1" d="M518.53,310a.6.6,0,0,0-.3.39l.29,1.08c.19.45,2.14,4.65,2.3,5s1.54,3.11,2,3.95c.33.61.45.78.53.78l.08-1.12-4.88-10" transform="translate(-441.5 -308.05)"/><path class="cls-2" d="M518.54,308.47c-.15-.32-.24-.42-.31-.42h0c0,.33.32,1.9.32,1.9l4.88,10a.53.53,0,0,0,.23-.14V319l-5.11-10.53" transform="translate(-441.5 -308.05)"/><path class="cls-1" d="M528.58,308.47,523.65,319v.85s4.64-9.85,4.67-9.9a.65.65,0,0,1,.3-.11l.31-1.79c-.1,0-.19.08-.34.42" transform="translate(-441.5 -308.05)"/><path class="cls-2" d="M523.64,319.85a.53.53,0,0,1-.23.14l-.08,1.12c.09,0,.2-.16.56-.9l4.21-8.95.21-1.31c0,.05-4.67,9.9-4.67,9.9" transform="translate(-441.5 -308.05)"/><path class="cls-98" d="M528.61,309.84a.65.65,0,0,0-.3.11l-.21,1.31.82,8.88c0,.3.07.59-.07.7s-.11,0-.12.07a.92.92,0,0,0,.49-.08,1.17,1.17,0,0,0,.49-.5l-1.1-10.49" transform="translate(-441.5 -308.05)"/><path class="cls-99" d="M518.53,310a.6.6,0,0,0-.3.39l.29,1.08c.19.45,2.14,4.65,2.3,5s1.54,3.11,2,3.95c.33.61.45.78.53.78l.08-1.12-4.88-10" transform="translate(-441.5 -308.05)"/><path class="cls-100" d="M518.54,308.47c-.15-.32-.24-.42-.31-.42h0c0,.33.32,1.9.32,1.9l4.88,10a.53.53,0,0,0,.23-.14V319l-5.11-10.53" transform="translate(-441.5 -308.05)"/><path class="cls-101" d="M528.61,309.84a.65.65,0,0,0-.3.11l-.21,1.31.82,8.88c0,.06,0,.13,0,.19h.77l-1.1-10.49" transform="translate(-441.5 -308.05)"/><path class="cls-102" d="M530.25,319l-1.14-10.42c-.05-.41-.14-.48-.19-.48l-.31,1.79,1.1,10.49h.86a4.1,4.1,0,0,1-.32-1.38" transform="translate(-441.5 -308.05)"/><path class="cls-103" d="M517.79,320.22c0-.29,0-.52,0-.8l.69-8-.29-1.08c0,.07-.69,7-1,10.06h.55c0-.06,0-.11,0-.18" transform="translate(-441.5 -308.05)"/><path class="cls-104" d="M516.79,319.44a4.92,4.92,0,0,1-.18,1h.63c.29-2.95.94-9.73,1-10.1h-.43l-1,9.09" transform="translate(-441.5 -308.05)"/><path class="cls-105" d="M532.22,321a3.53,3.53,0,0,1-1.06-.15,1,1,0,0,1-.59-.54h-.86a3.89,3.89,0,0,0,.93.53,4.19,4.19,0,0,0,1.76.21s0-.05-.18-.05" transform="translate(-441.5 -308.05)"/><path class="cls-106" d="M518.86,321a2.48,2.48,0,0,1-.61-.07.6.6,0,0,1-.45-.55h-.55v.06h0a2.28,2.28,0,0,0,.63.5,2.58,2.58,0,0,0,1.16.12s-.07-.05-.17-.05" transform="translate(-441.5 -308.05)"/><path class="cls-107" d="M518.53,310s-.31-1.57-.32-1.9c-.08,0-.17.14-.21.49l-.2,1.81h.43a.6.6,0,0,1,.3-.39" transform="translate(-441.5 -308.05)"/><path class="cls-108" d="M517.87,321a2.28,2.28,0,0,1-.63-.5,2.88,2.88,0,0,1-.69.49,2.24,2.24,0,0,1-1.12.12h0s.05.07.29.07c.46,0,1.27-.05,1.43-.05s1,.05,1.63.05c.2,0,.25-.05.25-.07a2.58,2.58,0,0,1-1.16-.12" transform="translate(-441.5 -308.05)"/><path class="cls-109" d="M530.64,320.86a3.89,3.89,0,0,1-.93-.53,1.17,1.17,0,0,1-.49.5.92.92,0,0,1-.49.08h0s.09.09.48.12c.64,0,2,.1,2.94.1.2,0,.25-.05.25-.07a4.19,4.19,0,0,1-1.76-.21" transform="translate(-441.5 -308.05)"/><path class="cls-110" d="M528.61,309.84a.65.65,0,0,0-.3.11l-.21,1.31h.66l-.15-1.43" transform="translate(-441.5 -308.05)"/><path class="cls-111" d="M523.65,319v.85l.64-1.35-.27-.27-.36.77" transform="translate(-441.5 -308.05)"/><path class="cls-112" d="M528.61,309.84l.31-1.79c-.1,0-.19.08-.34.42l-.6,1.29.28.28,0-.09a.65.65,0,0,1,.3-.11" transform="translate(-441.5 -308.05)"/><path class="cls-2" d="M523.64,319.85a.53.53,0,0,1-.23.14l-.08,1.12c.09,0,.2-.16.56-.9l4-8.43-.28-.29c-1.32,2.79-3.94,8.36-3.94,8.36" transform="translate(-441.5 -308.05)"/><path class="cls-113" d="M528.31,310s-.3.63-.73,1.54l.28.29.24-.52.21-1.31" transform="translate(-441.5 -308.05)"/><path class="cls-114" d="M530.25,319l-1.14-10.42c-.05-.41-.14-.48-.19-.48l-.31,1.79,1.1,10.49h.86a4.1,4.1,0,0,1-.32-1.38" transform="translate(-441.5 -308.05)"/><path class="cls-115" d="M517.79,320.22c0-.29,0-.52,0-.8l.69-8-.29-1.08c0,.07-.69,7-1,10.06h.55c0-.06,0-.11,0-.18" transform="translate(-441.5 -308.05)"/><path class="cls-116" d="M518.53,310s-.31-1.57-.32-1.9c-.08,0-.17.14-.21.49l-1.21,10.9c-.08.7-.15,1.43-.68,1.53a2.19,2.19,0,0,1-.51,0c-.1,0-.16,0-.17,0a2.24,2.24,0,0,0,1.12-.12,2.91,2.91,0,0,0,.69-.48c.29-3,1-10,1-10.12a.6.6,0,0,1,.3-.39" transform="translate(-441.5 -308.05)"/><path class="cls-117" d="M518.53,310a.6.6,0,0,0-.3.39l.29,1.08c.19.45,2.14,4.65,2.3,5s1.54,3.11,2,3.95c.33.61.45.78.53.78l.08-1.12-4.88-10" transform="translate(-441.5 -308.05)"/><path class="cls-118" d="M518.54,308.47c-.15-.32-.24-.42-.31-.42h0c0,.33.32,1.9.32,1.9l4.88,10a.53.53,0,0,0,.23-.14V319l-5.11-10.53" transform="translate(-441.5 -308.05)"/><path class="cls-119" d="M528.31,310c0,.05-4.67,9.9-4.67,9.9h.42l4-8.59.21-1.31" transform="translate(-441.5 -308.05)"/><path class="cls-120" d="M528.58,308.47,523.65,319v.85s4.64-9.85,4.67-9.9a.65.65,0,0,1,.3-.11l.31-1.79c-.1,0-.19.08-.34.42" transform="translate(-441.5 -308.05)"/><path class="cls-121" d="M528.61,309.84a.65.65,0,0,0-.3.11l-.21,1.31.82,8.88c0,.3.07.59-.07.7s-.11,0-.12.07a.92.92,0,0,0,.49-.08,1.17,1.17,0,0,0,.49-.5l-1.1-10.49" transform="translate(-441.5 -308.05)"/><path class="cls-1" d="M540.35,321.18c-.92,0-1.48,0-2,0l-.52,0-.66,0-1.46,0q-.3,0-.6,0l-.66,0c-.23,0-.26,0-.26,0s0,0,.11,0a1.49,1.49,0,0,0,.26,0c.58-.09.78-.52.81-1.78,0-.65,0-1.53,0-3v-3c0-2.65,0-3.13,0-3.67s-.14-1-.75-1.12a4.41,4.41,0,0,0-.47,0c-.18,0-.22,0-.22,0s.07-.06.27-.06c.4,0,.85,0,1.92.06h0c.4,0,3.5,0,3.88,0a4.16,4.16,0,0,0,.85-.1l.08,0,.09,0h0a.26.26,0,0,1,0,.13,1.13,1.13,0,0,1,0,.15,3.41,3.41,0,0,0-.1.65c0,.19,0,.34,0,.58s0,.2,0,.32-.06.23-.06.23,0-.05-.06-.21,0-.08,0-.12,0-.15,0-.27c-.08-.45-.56-.57-1.4-.64l-2.33-.05c-.11,0-.12,0-.12.13v4.81c0,.11,0,.11.1.11.55,0,2.36,0,2.72,0,.56,0,.91-.07,1-.28,0,0,0-.1.08-.1s0,.07,0,.1a1,1,0,0,1,0,.21,5.4,5.4,0,0,0-.1.69c0,.36,0,.59-.06.77s0,.16,0,.23-.05.23-.08.23,0-.05,0-.21a1.16,1.16,0,0,0,0-.31c-.1-.38-.62-.57-1-.62s-2.14-.08-2.47-.08c-.09,0-.1,0-.1.11v1.51c0,.16,0,.43,0,.75,0,.8,0,1.9,0,2.16,0,.77.13,1.08.57,1.25a4,4,0,0,0,1.41.15,6.61,6.61,0,0,0,1.65-.17c.52-.16.77-.35.87-1.08,0-.2.08-.25.1-.25h0s0,.13,0,.24v0a12.66,12.66,0,0,1-.27,1.61c-.06.24-.07.28-.86.28" transform="translate(-441.5 -308.05)"/><path class="cls-2" d="M540.44,320.37h0l.31.39h0l-.3-.37" transform="translate(-441.5 -308.05)"/><path class="cls-122" d="M540.13,314.35c.32-.21.65-.54.65-.77,0,0-.07.06-.09.1-.12.2-.47.24-1,.27-.39,0-2.48,0-2.7,0-.06,0-.08,0-.09,0l-.13.35c.29,0,2.83,0,3.38.05" transform="translate(-441.5 -308.05)"/><path class="cls-123" d="M536.75,314.3l.14.32s0,0,.1,0c.29,0,2,0,2.43.08.61.07,1,.34,1,.61a1.16,1.16,0,0,1,0,.31c0,.15,0,.22,0,.22a1.87,1.87,0,0,0-.39-1.47c-.55-.06-3.09-.05-3.38-.05" transform="translate(-441.5 -308.05)"/><path class="cls-2" d="M540.13,314.35a1.87,1.87,0,0,1,.39,1.47s.07,0,.09-.24,0-.47.07-1,.13-.77.13-.9,0-.1,0-.1c0,.23-.33.56-.65.77" transform="translate(-441.5 -308.05)"/><path class="cls-2" d="M541.22,320.9a15.24,15.24,0,0,0,.27-1.63c0-.12,0-.25,0-.25a2.39,2.39,0,0,1-.73,1.74,2.83,2.83,0,0,1,.4.34.37.37,0,0,0,.09-.2" transform="translate(-441.5 -308.05)"/><path class="cls-2" d="M540.45,308.73a2.1,2.1,0,0,1,.36,1.51s.05,0,.07-.24c0-.44,0-.64.07-.9a6,6,0,0,1,.13-.8q0-.12,0-.15c0,.12-.44.46-.63.58" transform="translate(-441.5 -308.05)"/><path class="cls-124" d="M535.35,308.54a2.93,2.93,0,0,0-1.38-.19h0s.06.05.22.05a2.74,2.74,0,0,1,.47,0c.56.09.72.53.75,1.11s0,1,0,3.67v3c0,1.51,0,2.38,0,3,0,1.28-.24,1.69-.82,1.77a1.34,1.34,0,0,1-.25,0c-.07,0-.12,0-.12,0a2.43,2.43,0,0,0,1.24-.21,4.29,4.29,0,0,0,.7-.54V309.1a3.44,3.44,0,0,0-.81-.56" transform="translate(-441.5 -308.05)"/><path class="cls-125" d="M537.05,320.71a2.16,2.16,0,0,1-.89-.37,4.29,4.29,0,0,1-.7.54,2.43,2.43,0,0,1-1.24.21h0s.09.05.27.05c.44,0,.85-.05,1.26-.05.66,0,1.44,0,2.12.05s1.23.05,2.48.05c.5,0,.69,0,.78-.09a2.83,2.83,0,0,0-.4-.34,12.71,12.71,0,0,1-3.68-.05" transform="translate(-441.5 -308.05)"/><path class="cls-126" d="M536.16,309.1a1.51,1.51,0,0,1,.5-.41,6.24,6.24,0,0,1,1.37-.06,22.58,22.58,0,0,1,2.42.1c.19-.12.62-.46.63-.58h0a.87.87,0,0,0-.17.07,5.4,5.4,0,0,1-.85.1c-.39,0-3.77,0-3.89,0-1.07,0-1.53,0-1.92,0-.2,0-.27,0-.27.06a2.93,2.93,0,0,1,1.38.19,3.44,3.44,0,0,1,.81.56" transform="translate(-441.5 -308.05)"/><path class="cls-127" d="M541.46,319s-.07.06-.1.25c-.11.73-.36.92-.87,1.07l-.08,0,.32.4a2.39,2.39,0,0,0,.73-1.74h0" transform="translate(-441.5 -308.05)"/><path class="cls-128" d="M540.45,308.73a22.58,22.58,0,0,0-2.42-.1,11,11,0,0,0-1.25,0l.14.3H537c.19,0,2,0,2.33.05.85.07,1.31.22,1.39.66a2.15,2.15,0,0,1,0,.36c0,.17,0,.22.07.22a2.1,2.1,0,0,0-.36-1.51" transform="translate(-441.5 -308.05)"/><path class="cls-129" d="M540.41,320.36a6.8,6.8,0,0,1-1.57.15,4.11,4.11,0,0,1-1.41-.15c-.44-.17-.53-.48-.56-1.24,0-.36,0-2.33,0-2.91v-1.5s0-.08,0-.09l-.14-.32.13-.35a.28.28,0,0,1,0-.1V309.1c0-.08,0-.12,0-.13s0,0,0,0l-.14-.3-.12,0-.11.06a1.88,1.88,0,0,0-.39.35v11.24a2.16,2.16,0,0,0,.89.37,12.71,12.71,0,0,0,3.68.05l-.32-.4" transform="translate(-441.5 -308.05)"/><path class="cls-130" d="M536.16,309.1a3.44,3.44,0,0,0-.81-.56,2.93,2.93,0,0,0-1.38-.19h0s.06.05.22.05a2.74,2.74,0,0,1,.47,0c.56.09.72.53.75,1.11s0,1,0,3.67v3c0,1.51,0,2.38,0,3,0,.09,0,.17,0,.25h.76V309.1" transform="translate(-441.5 -308.05)"/><path class="cls-131" d="M540.41,320.36a6.8,6.8,0,0,1-1.57.15,4.11,4.11,0,0,1-1.41-.15c-.44-.17-.53-.48-.56-1.24,0-.36,0-2.33,0-2.91v-1.5s0-.08,0-.09l-.14-.32.13-.35a.28.28,0,0,1,0-.1v-4.79l-.26-.35-.06,0a1.88,1.88,0,0,0-.39.35v11.24a2.16,2.16,0,0,0,.89.37,12.71,12.71,0,0,0,3.68.05l-.32-.4" transform="translate(-441.5 -308.05)"/><path class="cls-132" d="M536.16,309.1a1.51,1.51,0,0,1,.5-.41,6.24,6.24,0,0,1,1.37-.06,22.58,22.58,0,0,1,2.42.1c.19-.12.62-.46.63-.58h0a.87.87,0,0,0-.17.07,5.4,5.4,0,0,1-.85.1c-.39,0-3.77,0-3.89,0-1.07,0-1.53,0-1.92,0-.2,0-.27,0-.27.06a2.93,2.93,0,0,1,1.38.19,3.44,3.44,0,0,1,.81.56" transform="translate(-441.5 -308.05)"/><path class="cls-133" d="M540.13,314.35a1.87,1.87,0,0,1,.39,1.47s.07,0,.09-.24,0-.47.07-1,.13-.77.13-.9,0-.1,0-.1c0,.23-.33.56-.65.77" transform="translate(-441.5 -308.05)"/><path class="cls-134" d="M536.75,314.3l.14.32s0,0,.1,0l1.48,0v-.33h-1.72" transform="translate(-441.5 -308.05)"/><path class="cls-135" d="M540.13,314.35c-.26,0-1,0-1.66-.05v.33c.4,0,.77,0,.95.05.61.07,1,.34,1,.61a1.16,1.16,0,0,1,0,.31c0,.15,0,.22,0,.22a1.87,1.87,0,0,0-.39-1.47" transform="translate(-441.5 -308.05)"/><path class="cls-136" d="M538,308.63a11,11,0,0,0-1.25,0l.14.3H537c.19,0,2,0,2.33.05l.32,0v-.37l-1.59,0" transform="translate(-441.5 -308.05)"/><path class="cls-137" d="M540.45,308.73a7.57,7.57,0,0,0-.83-.07V309c.65.09,1,.25,1.07.63a2.15,2.15,0,0,1,0,.36c0,.17,0,.22.07.22a2.1,2.1,0,0,0-.36-1.51" transform="translate(-441.5 -308.05)"/><path class="cls-138" d="M540.13,314.35c.32-.21.65-.54.65-.77,0,0-.07.06-.09.1-.12.2-.47.24-1,.27-.39,0-2.48,0-2.7,0-.06,0-.08,0-.09,0l-.13.35c.29,0,2.83,0,3.38.05" transform="translate(-441.5 -308.05)"/><path class="cls-139" d="M540.45,308.73a2.1,2.1,0,0,1,.36,1.51s.05,0,.07-.24c0-.44,0-.64.07-.9a6,6,0,0,1,.13-.8q0-.12,0-.15c0,.12-.44.46-.63.58" transform="translate(-441.5 -308.05)"/><path class="cls-140" d="M541.08,308.15h0a.87.87,0,0,0-.17.07,4.21,4.21,0,0,1-.77.1l.27.4h.05c.19-.12.62-.46.63-.58" transform="translate(-441.5 -308.05)"/><path class="cls-141" d="M536.16,309.1a3.44,3.44,0,0,0-.81-.56,2.93,2.93,0,0,0-1.38-.19h0s.06.05.22.05a2.74,2.74,0,0,1,.47,0c.49.07.67.42.73.89h.77v-.23" transform="translate(-441.5 -308.05)"/><path class="cls-142" d="M541.22,320.9a15.24,15.24,0,0,0,.27-1.63c0-.12,0-.25,0-.25a2.39,2.39,0,0,1-.73,1.74,2.83,2.83,0,0,1,.4.34.37.37,0,0,0,.09-.2" transform="translate(-441.5 -308.05)"/><path class="cls-143" d="M541.46,319s-.07.06-.1.25c-.11.73-.36.92-.87,1.07l-.08,0,.32.4a2.39,2.39,0,0,0,.73-1.74h0" transform="translate(-441.5 -308.05)"/><path class="cls-144" d="M537.05,320.71a2.16,2.16,0,0,1-.89-.37,4.29,4.29,0,0,1-.7.54,2.43,2.43,0,0,1-1.24.21h0s.09.05.27.05c.44,0,.85-.05,1.26-.05.66,0,1.44,0,2.12.05s1.23.05,2.48.05c.5,0,.69,0,.78-.09a2.83,2.83,0,0,0-.4-.34,12.71,12.71,0,0,1-3.68-.05" transform="translate(-441.5 -308.05)"/><path class="cls-145" d="M540.41,320.36a6.8,6.8,0,0,1-1.57.15,4.11,4.11,0,0,1-1.41-.15c-.44-.17-.53-.48-.56-1.24,0-.36,0-2.33,0-2.91v-1.5s0-.08,0-.09l-.14-.32.13-.35a.28.28,0,0,1,0-.1V309.1c0-.08,0-.12,0-.13s0,0,0,0l-.14-.3-.12,0-.11.06a1.88,1.88,0,0,0-.39.35v11.24a2.16,2.16,0,0,0,.89.37,12.71,12.71,0,0,0,3.68.05l-.32-.4" transform="translate(-441.5 -308.05)"/><path class="cls-146" d="M535.35,308.54a2.93,2.93,0,0,0-1.38-.19h0s.06.05.22.05a2.74,2.74,0,0,1,.47,0c.56.09.72.53.75,1.11s0,1,0,3.67v3c0,1.51,0,2.38,0,3,0,1.28-.24,1.69-.82,1.77a1.34,1.34,0,0,1-.25,0c-.07,0-.12,0-.12,0a2.43,2.43,0,0,0,1.24-.21,4.29,4.29,0,0,0,.7-.54V309.1a3.44,3.44,0,0,0-.81-.56" transform="translate(-441.5 -308.05)"/><path class="cls-147" d="M540.13,314.35c.32-.21.65-.54.65-.77,0,0-.07.06-.09.1-.12.2-.47.24-1,.27-.39,0-2.48,0-2.7,0-.06,0-.08,0-.09,0l-.13.35c.29,0,2.83,0,3.38.05" transform="translate(-441.5 -308.05)"/><path class="cls-148" d="M536.75,314.3l.14.32s0,0,.1,0c.29,0,2,0,2.43.08.61.07,1,.34,1,.61a1.16,1.16,0,0,1,0,.31c0,.15,0,.22,0,.22a1.87,1.87,0,0,0-.39-1.47c-.55-.06-3.09-.05-3.38-.05" transform="translate(-441.5 -308.05)"/><path class="cls-149" d="M536.16,309.1a1.51,1.51,0,0,1,.5-.41,6.24,6.24,0,0,1,1.37-.06,22.58,22.58,0,0,1,2.42.1c.19-.12.62-.46.63-.58h0a.87.87,0,0,0-.17.07,5.4,5.4,0,0,1-.85.1c-.39,0-3.77,0-3.89,0-1.07,0-1.53,0-1.92,0-.2,0-.27,0-.27.06a2.93,2.93,0,0,1,1.38.19,3.44,3.44,0,0,1,.81.56" transform="translate(-441.5 -308.05)"/><path class="cls-150" d="M540.45,308.73a22.58,22.58,0,0,0-2.42-.1,11,11,0,0,0-1.25,0l.14.3H537c.19,0,2,0,2.33.05.85.07,1.31.22,1.39.66a2.15,2.15,0,0,1,0,.36c0,.17,0,.22.07.22a2.1,2.1,0,0,0-.36-1.51" transform="translate(-441.5 -308.05)"/></svg>