<?xml version="1.0" encoding="utf-8"?>
<!-- Generator: Adobe Illustrator 25.0.0, SVG Export Plug-In . SVG Version: 6.00 Build 0)  -->
<svg version="1.1" id="Layer_1" xmlns="http://www.w3.org/2000/svg" xmlns:xlink="http://www.w3.org/1999/xlink" x="0px" y="0px"
	 viewBox="0 0 1080 1080" style="enable-background:new 0 0 1080 1080;" xml:space="preserve">
<style type="text/css">
	.st0{fill:#001E36;}
	.st1{fill:#31A8FF;}
</style>
<g>
	<path class="st0" d="M539.73,133.94c89,0,178.01-0.01,267.01,0.02c6.33,0,12.69-0.06,18.99,0.45c11.07,0.89,21.88,3.08,32.21,7.41
		c4.99,2.09,10.56,2.97,15.29,5.48c7.98,4.23,15.66,9.08,23.18,14.1c14.16,9.44,25.62,21.8,35.11,35.73
		c5.64,8.28,9.94,17.57,14.08,26.76c3.08,6.85,5.21,14.17,7.22,21.43c1.14,4.12,1.39,8.52,1.74,12.82
		c0.91,11.09,2.36,22.19,2.37,33.29c0.15,170.51,0.24,341.01-0.16,511.52c-0.03,12.22-2.2,24.62-5.71,36.75
		c-3.21,11.09-7.56,21.47-12.94,31.51c-9.65,17.98-22.53,33.28-39.17,45.17c-7.89,5.64-15.86,11.48-24.57,15.56
		c-9.15,4.29-19.22,6.63-28.91,9.77c-19.81,6.44-40.27,4.04-60.48,4.06c-171.84,0.15-343.68,0.09-515.52,0.07
		c-6.33,0-12.79,0.46-18.96-0.64c-9.35-1.67-18.54-4.36-27.71-6.92c-5.53-1.55-11.21-3.06-16.25-5.69
		c-7.86-4.1-15.41-8.86-22.79-13.81c-14.26-9.56-25.92-21.91-35.46-36.02c-5.44-8.05-9.64-17.01-13.73-25.87
		c-3.01-6.51-4.93-13.53-7.34-20.32c-0.22-0.63-0.49-1.26-0.57-1.91c-1.53-11.87-4.33-23.74-4.35-35.62
		c-0.28-172.67-0.28-345.34-0.01-518.02c0.02-11.89,1.65-24.02,4.43-35.59c4.07-16.9,10.92-33.03,20.76-47.45
		c12.19-17.87,27.38-32.8,46.42-43.59c8.56-4.85,17.34-8.91,26.6-12.41c16.81-6.34,33.99-8.11,51.7-8.09
		C361.39,134,450.56,133.94,539.73,133.94z M310.04,525c0.01,0,0.01,0,0.02,0c0,58.15,0,116.3,0,174.45c0,7.74,0.76,8.5,8.64,8.5
		c18.99,0.01,37.99,0,56.98,0c7.93,0,8.55-0.61,8.55-8.51c-0.01-31.33-0.02-62.65-0.03-93.97c0-14.65,0-14.81,14.53-14.31
		c29.71,1.01,59.25,0.67,88.08-8.13c17.57-5.36,33.52-13.45,47.36-25.67c18.61-16.43,30.56-36.83,35.34-61.05
		c3.76-19.06,4.35-38.35,0.68-57.62c-3.06-16.04-8.8-30.99-18.1-44.41c-16.67-24.05-40.36-38.16-67.74-46.52
		c-16.64-5.08-33.93-7.19-51.25-7.56c-18.97-0.41-37.96,0.36-56.94,0.72c-19.82,0.38-39.63,0.85-59.44,1.32
		c-5.72,0.14-6.68,1.17-6.68,6.79C310.04,407.7,310.04,466.35,310.04,525z M611.04,663.56c0,8.83,0.11,17.66-0.04,26.49
		c-0.09,5.03,1.44,8.9,6.48,10.58c10.23,3.42,20.29,7.89,30.8,9.85c29.81,5.55,59.87,7.38,89.83,0.78
		c12.52-2.76,24.71-6.82,35.59-13.84c17.51-11.29,30.13-26.31,35.83-46.83c3.89-14.01,3.9-28.11,1.08-42.01
		c-1.55-7.62-5.17-15.13-9.21-21.88c-11.92-19.89-32.26-29.24-51.91-38.86c-13.83-6.77-28.77-11.24-42.68-17.86
		c-7.32-3.48-14.52-8.45-19.93-14.42c-7.82-8.62-2.69-21.13,8.52-24.82c11.7-3.86,23.54-4.26,35.55-2.87
		c16.38,1.89,32.65,4.39,48.04,10.71c3.05,1.25,5.88,3.19,9.02,4.06c2.73,0.76,5.84,0.91,8.61,0.39c0.93-0.18,1.86-3.25,1.87-5.01
		c0.04-16.82-0.22-33.64-0.18-50.47c0.02-6.44-1.16-9.28-7.37-11.34c-7.08-2.35-14.32-4.67-21.67-5.67
		c-13.84-1.87-27.79-3.42-41.74-3.95c-22.79-0.87-45.14,1.54-66.17,11.56c-26.58,12.66-43.65,32.48-48.12,62.17
		c-2.39,15.86-1.19,31.45,5.97,45.82c7.82,15.7,20.31,27.32,35.31,36.42c17.86,10.83,37.45,17.71,56.53,25.8
		c7.53,3.19,15.06,7.33,21.2,12.64c11.73,10.13,7.08,22.29-4.29,27.07c-7.73,3.25-16.69,4.31-25.19,4.86
		c-17.94,1.17-35.62-1.86-52.68-7.12c-10.87-3.35-21.11-8.71-31.66-13.09c-1.72-0.71-4.07-1.84-5.31-1.2
		c-1.23,0.64-1.96,3.26-1.99,5.03C610.94,645.56,611.04,654.56,611.04,663.56z"/>
	<path class="st1" d="M310.04,525c0-58.65,0-117.3,0-175.95c0-5.62,0.96-6.66,6.68-6.79c19.81-0.47,39.63-0.95,59.44-1.32
		c18.98-0.36,37.98-1.13,56.94-0.72c17.32,0.38,34.61,2.48,51.25,7.56c27.39,8.36,51.08,22.47,67.74,46.52
		c9.3,13.43,15.05,28.37,18.1,44.41c3.67,19.27,3.08,38.56-0.68,57.62c-4.78,24.22-16.72,44.62-35.34,61.05
		c-13.84,12.22-29.79,20.31-47.36,25.67c-28.83,8.79-58.36,9.13-88.08,8.13c-14.53-0.49-14.54-0.33-14.53,14.31
		c0.01,31.33,0.02,62.65,0.03,93.97c0,7.9-0.61,8.51-8.55,8.51c-18.99,0-37.99,0.01-56.98,0c-7.88,0-8.64-0.76-8.64-8.5
		c0-58.15,0-116.3,0-174.45C310.05,525,310.04,525,310.04,525z M384.99,467.31c-0.02,0-0.04,0-0.06,0c0,17.49,0,34.98,0,52.47
		c0,5.28,1.45,7.16,6.66,7.13c20.59-0.13,41.19,1.36,61.54-4.3c22.01-6.13,43.65-22.62,44.72-50.13
		c0.75-19.37-3.08-36.44-18.35-49.4c-11.59-9.84-25.7-14.12-40.46-15.06c-15.26-0.96-30.61-0.33-45.92-0.34
		c-6.98,0-8.12,1.2-8.12,8.16C384.99,433,384.99,450.15,384.99,467.31z"/>
	<path class="st1" d="M611.04,663.56c0-9-0.1-18,0.09-26.99c0.04-1.77,0.76-4.39,1.99-5.03c1.24-0.64,3.59,0.49,5.31,1.2
		c10.56,4.38,20.8,9.74,31.66,13.09c17.06,5.26,34.74,8.28,52.68,7.12c8.51-0.55,17.46-1.61,25.19-4.86
		c11.37-4.78,16.02-16.93,4.29-27.07c-6.15-5.31-13.67-9.45-21.2-12.64c-19.08-8.1-38.67-14.97-56.53-25.8
		c-15-9.1-27.5-20.71-35.31-36.42c-7.15-14.37-8.36-29.97-5.97-45.82c4.47-29.69,21.54-49.51,48.12-62.17
		c21.03-10.02,43.38-12.43,66.17-11.56c13.95,0.54,27.89,2.08,41.74,3.95c7.35,0.99,14.59,3.32,21.67,5.67
		c6.21,2.06,7.38,4.9,7.37,11.34c-0.05,16.82,0.21,33.64,0.18,50.47c0,1.75-0.93,4.83-1.87,5.01c-2.76,0.52-5.88,0.37-8.61-0.39
		c-3.14-0.87-5.96-2.81-9.02-4.06c-15.39-6.32-31.66-8.82-48.04-10.71c-12.02-1.39-23.85-0.99-35.55,2.87
		c-11.21,3.69-16.34,16.2-8.52,24.82c5.41,5.97,12.61,10.93,19.93,14.42c13.91,6.62,28.85,11.09,42.68,17.86
		c19.66,9.62,39.99,18.97,51.91,38.86c4.04,6.75,7.66,14.26,9.21,21.88c2.83,13.89,2.82,28-1.08,42.01
		c-5.7,20.52-18.33,35.54-35.83,46.83c-10.88,7.02-23.07,11.08-35.59,13.84c-29.96,6.6-60.02,4.77-89.83-0.78
		c-10.52-1.96-20.57-6.43-30.8-9.85c-5.04-1.68-6.57-5.55-6.48-10.58C611.15,681.22,611.04,672.39,611.04,663.56z"/>
	<path class="st0" d="M384.99,467.31c0-17.16,0-34.31,0-51.47c0-6.96,1.15-8.17,8.12-8.16c15.31,0.01,30.67-0.62,45.92,0.34
		c14.76,0.93,28.87,5.22,40.46,15.06c15.27,12.96,19.1,30.02,18.35,49.4c-1.07,27.51-22.71,44-44.72,50.13
		c-20.36,5.67-40.95,4.17-61.54,4.3c-5.22,0.03-6.67-1.85-6.66-7.13c0-17.49,0-34.98,0-52.47
		C384.95,467.31,384.97,467.31,384.99,467.31z"/>
</g>
</svg>
