<svg id="Layer_1" data-name="Layer 1" xmlns="http://www.w3.org/2000/svg" viewBox="0 0 45.83 35.92">
<path class="twitter" d="M555.79,507.83a46.92,46.92,0,0,1,0,8.38A23.13,23.13,0,0,1,517,530.33a11.53,11.53,0,0,0,13.83-2.27,11.1,11.1,0,0,1-9.7-8,7.46,7.46,0,0,0,6,1.88,10.77,10.77,0,0,1-8.24-11.85,7.42,7.42,0,0,0,8.83,5.76,4.23,4.23,0,0,1-1.6-.42,12.11,12.11,0,0,1-1.61-.71,10.36,10.36,0,0,1-2.2-1.57l-.51-.5a7.55,7.55,0,0,1-1.32-2.53,8.17,8.17,0,0,1-.62-2.92,8.35,8.35,0,0,1,1.84-5.58c2.3,6.1,8.66,9.87,15.17,10.32a5.28,5.28,0,0,0,2.1,0,30,30,0,0,0,.08-3.69,6.7,6.7,0,0,1,.83-2.85A8.54,8.54,0,0,1,554,504l6.17-2.17a38.66,38.66,0,0,1-4.89,4l1.35,0,4.63-.11Z" transform="translate(-516.14 -500.78)"/>
</svg>